<svg width="50" height="50" viewBox="0 0 50 50" fill="none" xmlns="http://www.w3.org/2000/svg">
<path d="M11.3975 26.5815C11.3975 26.9315 11.6049 27.1556 11.9286 27.1556C12.5322 27.1556 12.9672 26.5811 12.9929 25.7483C12.8376 25.7301 12.769 25.7251 12.6622 25.7251C11.8225 25.7251 11.3975 26.0127 11.3975 26.5815V26.5815Z" fill="white"/>
<path d="M23.657 23.7827C23.1883 23.7827 22.8525 24.1409 22.7158 24.7875H24.3423C24.3503 24.6698 24.4986 23.7827 23.657 23.7827Z" fill="white"/>
<path d="M24.7585 0C11.0852 0 0 11.0831 0 24.7565C0 38.4299 11.0852 49.5149 24.7585 49.5149C38.4308 49.5149 49.5159 38.4299 49.5159 24.7565C49.5158 11.083 38.4307 0 24.7585 0V0ZM7.86289 28.2558L8.71187 22.9349L6.81685 28.2558H5.80691L5.68224 22.9659L4.79013 28.2558H3.40345L4.56179 21.3343H6.69228L6.7517 25.619L8.18935 21.3343H10.4903L9.34427 28.2558H7.86289V28.2558ZM12.8427 28.2558L12.8707 27.6729C12.4965 28.1333 11.9967 28.3536 11.318 28.3536C10.515 28.3536 9.96462 27.726 9.96462 26.8154C9.96462 25.4444 10.9221 24.6458 12.5656 24.6458C12.7337 24.6458 12.9489 24.6611 13.1694 24.6896C13.2153 24.5034 13.2273 24.4243 13.2273 24.3233C13.2273 23.9509 12.9693 23.8124 12.2773 23.8124C11.5522 23.8037 10.9548 23.9842 10.7089 24.0647C10.7245 23.9714 10.9145 22.7989 10.9145 22.7989C11.6527 22.5824 12.1396 22.5007 12.6876 22.5007C13.9599 22.5007 14.6336 23.0723 14.6324 24.1514C14.6349 24.4408 14.5871 24.7985 14.5125 25.2669C14.3838 26.0815 14.1078 27.8308 14.07 28.2558C13.8729 28.2558 12.8427 28.2558 12.8427 28.2558V28.2558ZM17.1806 24.9039C17.9228 25.2446 18.225 25.6983 18.225 26.4721C18.225 27.7585 17.5031 28.3537 15.9395 28.3537C15.0349 28.3276 14.7346 28.2602 14.3981 28.1864C14.4072 28.1279 14.6013 26.8874 14.6013 26.8874C15.0758 27.0403 15.487 27.1089 15.929 27.1089C16.5153 27.1089 16.7799 26.9506 16.7799 26.5997C16.7799 26.344 16.687 26.2606 16.0871 25.9783C15.3041 25.609 14.9586 25.1191 14.9586 24.4063C14.9536 23.3663 15.5271 22.5007 17.1845 22.5007C17.5234 22.5007 18.1049 22.5503 18.4887 22.6109L18.2776 23.9162C17.9011 23.8631 17.5037 23.831 17.2132 23.831C16.7342 23.831 16.488 23.9874 16.488 24.2917C16.4882 24.5548 16.5596 24.6179 17.1806 24.9039V24.9039ZM20.4513 26.9775C20.6202 26.9775 20.7508 26.961 20.851 26.9244L20.6543 28.1705C20.2491 28.2981 19.9328 28.3537 19.5903 28.3537C18.8328 28.3537 18.4192 27.9182 18.4192 27.1174C18.4088 26.8676 18.5285 26.2143 18.6227 25.6166C18.708 25.0901 19.2651 21.775 19.2651 21.775H20.7378L20.5655 22.6269H21.3215L21.1202 23.9795H20.3616C20.1905 25.0509 19.9466 26.3836 19.9437 26.5605C19.9437 26.8514 20.0992 26.9775 20.4513 26.9775ZM23.8836 27.0803C24.4105 27.0803 24.8861 26.9712 25.4153 26.7252L25.1702 28.1257C24.6641 28.2808 24.1755 28.354 23.6586 28.3536C22.0099 28.3523 21.1509 27.491 21.1509 25.8423C21.1509 23.9174 22.244 22.5007 23.7273 22.5007C24.9426 22.5007 25.7177 23.2939 25.7177 24.5388C25.7177 24.9515 25.6639 25.3542 25.5366 25.9227H22.6037C22.5043 26.7395 23.0272 27.0803 23.8836 27.0803ZM27.1903 28.2558H25.7081L25.7755 27.8772C26.0328 26.1338 26.3626 24.3692 26.5488 22.6269H27.9094C27.9224 22.9127 27.8567 23.1923 27.8209 23.4807C28.2741 22.8143 28.6212 22.4636 29.2412 22.5929C29.0579 22.904 28.8112 23.5209 28.6781 24.2256C27.8478 24.1415 27.7206 24.8134 27.1903 28.2558V28.2558ZM32.8742 28.1506C32.3288 28.2993 31.9758 28.3536 31.5651 28.3536C29.97 28.3536 28.9763 27.2067 28.9763 25.365C28.9763 22.8905 30.3498 21.1612 32.3131 21.1612C32.9601 21.1612 33.7242 21.4352 33.9415 21.5206L33.6989 23.0227C33.1698 22.7568 32.7864 22.6491 32.3754 22.6491C31.2693 22.6491 30.4935 23.7182 30.4935 25.2429C30.4935 26.2933 31.0149 26.9282 31.8763 26.9282C32.2411 26.9282 32.6442 26.8153 33.1345 26.5731L32.8742 28.1506V28.1506ZM37.4099 28.2558C37.2127 28.2558 36.1825 28.2558 36.1825 28.2558L36.2102 27.6729C35.8358 28.1333 35.3362 28.3536 34.658 28.3536C33.8544 28.3536 33.3046 27.726 33.3046 26.8154C33.3046 25.4444 34.2612 24.6458 35.9053 24.6458C36.0733 24.6458 36.2881 24.6611 36.5084 24.6896C36.5543 24.5034 36.5665 24.4243 36.5665 24.3233C36.5665 23.9509 36.3091 23.8124 35.6167 23.8124C34.8922 23.8037 34.2949 23.9842 34.0484 24.0647C34.064 23.9714 34.254 22.7989 34.254 22.7989C34.9923 22.5824 35.4789 22.5007 36.0269 22.5007C37.2991 22.5007 37.9734 23.0723 37.9717 24.1514C37.9746 24.4408 37.9267 24.7985 37.8521 25.2669C37.7237 26.0815 37.4478 27.8308 37.4099 28.2558ZM39.3862 28.2558H37.9043L37.9717 27.8772C38.2295 26.1338 38.5589 24.3692 38.7443 22.6269H40.1056C40.1178 22.9127 40.0525 23.1923 40.0163 23.4807C40.4704 22.8143 40.817 22.4636 41.4375 22.5929C41.2538 22.904 41.0075 23.5209 40.8752 24.2256C40.0437 24.1415 39.9161 24.8134 39.3862 28.2558V28.2558ZM43.8499 28.2558L43.9194 27.7318C43.5129 28.166 43.0963 28.3535 42.5534 28.3535C41.4767 28.3535 40.7645 27.4255 40.7645 26.0175C40.7645 24.145 41.8689 22.5668 43.175 22.5668C43.7496 22.5668 44.1847 22.8013 44.5899 23.3346L44.9184 21.3342H46.3796L45.2512 28.2557H43.8499V28.2558Z" fill="white"/>
<path d="M34.7373 26.5815C34.7373 26.9315 34.9446 27.1556 35.2681 27.1556C35.8713 27.1556 36.3068 26.5811 36.3317 25.7483C36.1772 25.7301 36.1085 25.7251 36.0018 25.7251C35.1624 25.7251 34.7373 26.0127 34.7373 26.5815V26.5815Z" fill="white"/>
<path d="M43.4552 23.9546C42.7834 23.9546 42.3062 24.7391 42.3062 25.8462C42.3062 26.5829 42.5618 26.9553 43.0655 26.9553C43.756 26.9553 44.2404 26.1735 44.2404 25.0585C44.2404 24.3433 43.9645 23.9546 43.4552 23.9546Z" fill="white"/>
</svg>
