<svg width="50" height="50" viewBox="0 0 50 50" fill="none" xmlns="http://www.w3.org/2000/svg">
<path d="M35.2949 19.2311C34.1899 24.2411 30.0739 27.4811 24.8089 27.4811H22.0899L20.9529 32.6451L20.6069 34.2191H18.9959H16.9729L16.3999 36.7621H22.4589L23.9409 30.0241H28.2689C32.4099 30.0241 35.8729 27.5531 36.7979 23.3501C37.3369 20.9071 36.6709 19.1511 35.4869 18.0181C35.4509 18.4051 35.3879 18.8091 35.2949 19.2311Z" fill="white"/>
<path d="M18.996 32.2129L20.48 25.4769H24.808C24.859 25.4769 24.91 25.4729 24.96 25.4709C27.421 25.4339 29.63 24.5199 31.196 22.8849C32.223 21.8169 32.973 20.4419 33.337 18.7989C33.495 18.0779 33.548 17.4179 33.515 16.8149C33.468 15.9489 33.242 15.2029 32.884 14.5719C31.855 12.7399 29.747 11.8789 27.837 11.8789H17.513L12.938 32.2129H15.369H17.424H18.996ZM22.549 16.4259L22.645 16.0189H25.612C26.124 16.0189 26.575 16.1669 26.93 16.4259C27.606 16.9119 27.936 17.7889 27.651 18.7989C27.489 19.4749 27.104 20.0879 26.596 20.5669C26.412 20.7389 26.211 20.8909 25.998 21.0259C25.447 21.3739 24.818 21.5849 24.187 21.5849H21.345L22.549 16.4259Z" fill="white"/>
<path d="M25.7031 18.3319L25.7111 18.2969L25.7211 18.2579C25.7541 18.1409 25.7521 18.0699 25.7481 18.0409C25.7271 18.0329 25.6841 18.0229 25.6111 18.0229H24.2341L23.8711 19.5799H24.1871C24.8121 19.5799 25.5491 18.9729 25.7031 18.3319Z" fill="white"/>
<path d="M24.625 0C11.025 0 0 11.023 0 24.624C0 38.224 11.024 49.249 24.625 49.249C38.225 49.249 49.25 38.224 49.25 24.624C49.25 11.023 38.224 0 24.625 0ZM38.756 23.781C37.652 28.791 33.535 32.027 28.27 32.027H25.553L24.416 37.191L24.068 38.765H22.459H16.4H13.895L14.445 36.322L14.919 34.218H12.939H10.435L10.985 31.775L15.56 11.437L15.912 9.873H17.515H27.838C30.297 9.873 32.608 10.922 34.02 12.678C34.541 13.328 35.075 14.244 35.346 15.451C36.174 15.908 36.903 16.508 37.479 17.225C38.455 18.44 39.466 20.561 38.756 23.781Z" fill="white"/>
</svg>
