<svg width="50" height="50" viewBox="0 0 50 50" fill="none" xmlns="http://www.w3.org/2000/svg">
<path d="M24.625 0C11.0254 0 0 11.0234 0 24.623C0 38.2227 11.0254 49.248 24.625 49.248C38.2236 49.248 49.249 38.2227 49.249 24.623C49.249 11.0233 38.2236 0 24.625 0ZM11.4911 30.3508L9.13519 21.2347C8.99239 20.6733 8.868 20.4666 8.433 20.2311C7.723 19.8447 6.54989 19.4832 5.51749 19.2589L5.5873 18.9272H10.6157C11.2565 18.9272 11.8327 19.353 11.9792 20.0915L13.2236 26.7025L16.2991 18.9272H19.4029L14.6148 30.3508H11.4911V30.3508ZM18.2268 30.3508L20.6712 18.9272H23.6257L21.182 30.3508H18.2268V30.3508ZM26.4983 30.5296C25.176 30.5162 23.9019 30.24 23.212 29.9226L23.7479 27.4196C24.4338 27.7402 25.2967 28.1644 26.7822 28.1414C27.6325 28.128 28.542 27.7901 28.551 27.0233C28.5559 26.5224 28.1687 26.1634 27.018 25.6033C25.8981 25.0572 24.4107 24.1396 24.4312 22.4948C24.4476 20.2714 26.5032 18.7183 29.4242 18.7183C30.5631 18.7183 31.4772 18.9665 32.1894 19.2256L31.6696 21.6477C30.3467 21.0379 29.179 21.0807 28.7564 21.1366C27.9024 21.248 27.5123 21.6834 27.5027 22.0923C27.4742 23.44 31.6557 23.6066 31.6433 26.621C31.6331 28.9966 29.6027 30.5296 26.4983 30.5296ZM39.3562 30.3508L38.999 28.645H35.2085L34.5913 30.3508H31.4897L35.9232 19.7654C36.1361 19.2577 36.614 18.9272 37.181 18.9272H39.7045L42.0902 30.3508H39.3562V30.3508Z" fill="white"/>
<path d="M36.0586 26.3032H38.5101L37.6146 22.0137L36.0586 26.3032Z" fill="white"/>
</svg>
