<svg width="50" height="50" viewBox="0 0 50 50" fill="none" xmlns="http://www.w3.org/2000/svg">
<circle cx="25" cy="25" r="25" fill="#FA6E55"/>
<path d="M28.8663 22.3034C28.8663 22.8101 28.7663 23.2968 28.5663 23.7634C28.3663 24.2301 28.1063 24.6834 27.7863 25.1234C27.4663 25.5501 27.1063 25.9634 26.7063 26.3634C26.3063 26.7634 25.913 27.1434 25.5263 27.5034C25.3263 27.6901 25.1063 27.9034 24.8663 28.1434C24.6396 28.3701 24.4196 28.6034 24.2063 28.8434C23.993 29.0834 23.7996 29.3101 23.6263 29.5234C23.4663 29.7234 23.3663 29.8901 23.3263 30.0234H29.2863V32.5234H20.0463C20.0196 32.3768 20.0063 32.1901 20.0063 31.9634C20.0063 31.7368 20.0063 31.5768 20.0063 31.4834C20.0063 30.8434 20.1063 30.2568 20.3063 29.7234C20.5196 29.1901 20.793 28.6968 21.1263 28.2434C21.4596 27.7768 21.833 27.3434 22.2463 26.9434C22.673 26.5434 23.093 26.1434 23.5063 25.7434C23.8263 25.4368 24.1263 25.1501 24.4063 24.8834C24.6863 24.6034 24.933 24.3368 25.1463 24.0834C25.3596 23.8168 25.5263 23.5568 25.6463 23.3034C25.7663 23.0368 25.8263 22.7701 25.8263 22.5034C25.8263 21.9168 25.6596 21.5034 25.3263 21.2634C24.993 21.0234 24.5796 20.9034 24.0863 20.9034C23.7263 20.9034 23.3863 20.9634 23.0663 21.0834C22.7596 21.1901 22.473 21.3234 22.2063 21.4834C21.953 21.6301 21.733 21.7834 21.5463 21.9434C21.3596 22.0901 21.2196 22.2101 21.1263 22.3034L19.6463 20.2234C20.233 19.6768 20.913 19.2301 21.6863 18.8834C22.473 18.5234 23.313 18.3434 24.2063 18.3434C25.0196 18.3434 25.7196 18.4368 26.3063 18.6234C26.893 18.8101 27.373 19.0768 27.7463 19.4234C28.133 19.7568 28.413 20.1701 28.5863 20.6634C28.773 21.1434 28.8663 21.6901 28.8663 22.3034Z" fill="white"/>
</svg>
