<svg width="42" height="42" viewBox="0 0 42 42" fill="none" xmlns="http://www.w3.org/2000/svg">
<circle cx="21" cy="21" r="21" fill="#405F9E"/>
<path d="M24.4426 18.3254C24.4426 18.7814 24.3526 19.2194 24.1726 19.6394C23.9926 20.0594 23.7586 20.4674 23.4706 20.8634C23.1826 21.2474 22.8586 21.6194 22.4986 21.9794C22.1386 22.3394 21.7846 22.6814 21.4366 23.0054C21.2566 23.1734 21.0586 23.3654 20.8426 23.5814C20.6386 23.7854 20.4406 23.9954 20.2486 24.2114C20.0566 24.4274 19.8826 24.6314 19.7266 24.8234C19.5826 25.0034 19.4926 25.1534 19.4566 25.2734H24.8206V27.5234H16.5046C16.4806 27.3914 16.4686 27.2234 16.4686 27.0194C16.4686 26.8154 16.4686 26.6714 16.4686 26.5874C16.4686 26.0114 16.5586 25.4834 16.7386 25.0034C16.9306 24.5234 17.1766 24.0794 17.4766 23.6714C17.7766 23.2514 18.1126 22.8614 18.4846 22.5014C18.8686 22.1414 19.2466 21.7814 19.6186 21.4214C19.9066 21.1454 20.1766 20.8874 20.4286 20.6474C20.6806 20.3954 20.9026 20.1554 21.0946 19.9274C21.2866 19.6874 21.4366 19.4534 21.5446 19.2254C21.6526 18.9854 21.7066 18.7454 21.7066 18.5054C21.7066 17.9774 21.5566 17.6054 21.2566 17.3894C20.9566 17.1734 20.5846 17.0654 20.1406 17.0654C19.8166 17.0654 19.5106 17.1194 19.2226 17.2274C18.9466 17.3234 18.6886 17.4434 18.4486 17.5874C18.2206 17.7194 18.0226 17.8574 17.8546 18.0014C17.6866 18.1334 17.5606 18.2414 17.4766 18.3254L16.1446 16.4534C16.6726 15.9614 17.2846 15.5594 17.9806 15.2474C18.6886 14.9234 19.4446 14.7614 20.2486 14.7614C20.9806 14.7614 21.6106 14.8454 22.1386 15.0134C22.6666 15.1814 23.0986 15.4214 23.4346 15.7334C23.7826 16.0334 24.0346 16.4054 24.1906 16.8494C24.3586 17.2814 24.4426 17.7734 24.4426 18.3254Z" fill="white"/>
</svg>
