<svg width="50" height="50" viewBox="0 0 50 50" fill="none" xmlns="http://www.w3.org/2000/svg">
<circle cx="25" cy="25" r="25" fill="#FA6E55"/>
<path d="M23.5063 32.8234C23.1463 32.8234 22.7663 32.7968 22.3663 32.7434C21.9663 32.7034 21.5796 32.6434 21.2063 32.5634C20.833 32.4834 20.493 32.3968 20.1863 32.3034C19.8796 32.2101 19.6396 32.1234 19.4663 32.0434L20.0463 29.5634C20.393 29.7101 20.833 29.8701 21.3663 30.0434C21.913 30.2034 22.5863 30.2834 23.3863 30.2834C24.3063 30.2834 24.9796 30.1101 25.4063 29.7634C25.833 29.4168 26.0463 28.9501 26.0463 28.3634C26.0463 28.0034 25.9663 27.7034 25.8063 27.4634C25.6596 27.2101 25.453 27.0101 25.1863 26.8634C24.9196 26.7034 24.5996 26.5968 24.2263 26.5434C23.8663 26.4768 23.4796 26.4434 23.0663 26.4434H21.9063V24.0434H23.2263C23.5196 24.0434 23.7996 24.0168 24.0663 23.9634C24.3463 23.9101 24.593 23.8234 24.8063 23.7034C25.0196 23.5701 25.1863 23.3968 25.3063 23.1834C25.4396 22.9568 25.5063 22.6768 25.5063 22.3434C25.5063 22.0901 25.453 21.8701 25.3463 21.6834C25.2396 21.4968 25.0996 21.3434 24.9263 21.2234C24.7663 21.1034 24.573 21.0168 24.3463 20.9634C24.133 20.8968 23.913 20.8634 23.6863 20.8634C23.113 20.8634 22.5796 20.9501 22.0863 21.1234C21.6063 21.2968 21.1663 21.5101 20.7663 21.7634L19.7063 19.5834C19.9196 19.4501 20.1663 19.3101 20.4463 19.1634C20.7396 19.0168 21.0596 18.8834 21.4063 18.7634C21.753 18.6434 22.1196 18.5434 22.5063 18.4634C22.9063 18.3834 23.3263 18.3434 23.7663 18.3434C24.5796 18.3434 25.2796 18.4434 25.8663 18.6434C26.4663 18.8301 26.9596 19.1034 27.3463 19.4634C27.733 19.8101 28.0196 20.2234 28.2063 20.7034C28.393 21.1701 28.4863 21.6834 28.4863 22.2434C28.4863 22.7901 28.333 23.3234 28.0263 23.8434C27.7196 24.3501 27.3063 24.7368 26.7863 25.0034C27.5063 25.2968 28.0596 25.7368 28.4463 26.3234C28.8463 26.8968 29.0463 27.5901 29.0463 28.4034C29.0463 29.0434 28.9396 29.6368 28.7263 30.1834C28.513 30.7168 28.1796 31.1834 27.7263 31.5834C27.273 31.9701 26.693 32.2768 25.9863 32.5034C25.293 32.7168 24.4663 32.8234 23.5063 32.8234Z" fill="white"/>
</svg>
