<svg width="42" height="42" viewBox="0 0 42 42" fill="none" xmlns="http://www.w3.org/2000/svg">
<circle cx="21" cy="21" r="21" fill="#405F9E"/>
<path d="M19.6186 27.7934C19.2946 27.7934 18.9526 27.7694 18.5926 27.7214C18.2326 27.6854 17.8846 27.6314 17.5486 27.5594C17.2126 27.4874 16.9066 27.4094 16.6306 27.3254C16.3546 27.2414 16.1386 27.1634 15.9826 27.0914L16.5046 24.8594C16.8166 24.9914 17.2126 25.1354 17.6926 25.2914C18.1846 25.4354 18.7906 25.5074 19.5106 25.5074C20.3386 25.5074 20.9446 25.3514 21.3286 25.0394C21.7126 24.7274 21.9046 24.3074 21.9046 23.7794C21.9046 23.4554 21.8326 23.1854 21.6886 22.9694C21.5566 22.7414 21.3706 22.5614 21.1306 22.4294C20.8906 22.2854 20.6026 22.1894 20.2666 22.1414C19.9426 22.0814 19.5946 22.0514 19.2226 22.0514H18.1786V19.8914H19.3666C19.6306 19.8914 19.8826 19.8674 20.1226 19.8194C20.3746 19.7714 20.5966 19.6934 20.7886 19.5854C20.9806 19.4654 21.1306 19.3094 21.2386 19.1174C21.3586 18.9134 21.4186 18.6614 21.4186 18.3614C21.4186 18.1334 21.3706 17.9354 21.2746 17.7674C21.1786 17.5994 21.0526 17.4614 20.8966 17.3534C20.7526 17.2454 20.5786 17.1674 20.3746 17.1194C20.1826 17.0594 19.9846 17.0294 19.7806 17.0294C19.2646 17.0294 18.7846 17.1074 18.3406 17.2634C17.9086 17.4194 17.5126 17.6114 17.1526 17.8394L16.1986 15.8774C16.3906 15.7574 16.6126 15.6314 16.8646 15.4994C17.1286 15.3674 17.4166 15.2474 17.7286 15.1394C18.0406 15.0314 18.3706 14.9414 18.7186 14.8694C19.0786 14.7974 19.4566 14.7614 19.8526 14.7614C20.5846 14.7614 21.2146 14.8514 21.7426 15.0314C22.2826 15.1994 22.7266 15.4454 23.0746 15.7694C23.4226 16.0814 23.6806 16.4534 23.8486 16.8854C24.0166 17.3054 24.1006 17.7674 24.1006 18.2714C24.1006 18.7634 23.9626 19.2434 23.6866 19.7114C23.4106 20.1674 23.0386 20.5154 22.5706 20.7554C23.2186 21.0194 23.7166 21.4154 24.0646 21.9434C24.4246 22.4594 24.6046 23.0834 24.6046 23.8154C24.6046 24.3914 24.5086 24.9254 24.3166 25.4174C24.1246 25.8974 23.8246 26.3174 23.4166 26.6774C23.0086 27.0254 22.4866 27.3014 21.8506 27.5054C21.2266 27.6974 20.4826 27.7934 19.6186 27.7934Z" fill="white"/>
</svg>
