<svg width="61" height="60" viewBox="0 0 61 60" fill="none" xmlns="http://www.w3.org/2000/svg">
<path d="M30.3716 57.4302C45.5278 57.4302 57.8144 45.118 57.8144 29.9302C57.8144 14.7423 45.5278 2.43018 30.3716 2.43018C15.2153 2.43018 2.92871 14.7423 2.92871 29.9302C2.92871 45.118 15.2153 57.4302 30.3716 57.4302Z" fill="#405F9E"/>
<path d="M53.1522 29.9274L55.3194 26.8467C55.4518 26.6597 55.5303 26.4399 55.5462 26.2112C55.5621 25.9826 55.5149 25.754 55.4097 25.5504C55.3045 25.3469 55.1454 25.1763 54.9498 25.0574C54.7543 24.9385 54.5298 24.8759 54.3011 24.8764H49.1189C48.9192 24.8766 48.7225 24.9248 48.5453 25.017C48.3681 25.1092 48.2155 25.2426 48.1005 25.4062L47.7692 25.8767C46.7983 21.6809 44.3519 17.9759 40.8778 15.4398C37.4038 12.9038 33.1345 11.7064 28.8514 12.0668C24.5683 12.4272 20.5581 14.3213 17.5547 17.4025C14.5514 20.4836 12.7559 24.5455 12.4969 28.8448C12.2379 33.1441 13.5327 37.393 16.1444 40.8138C18.756 44.2346 22.5098 46.5984 26.7184 47.4725C30.9271 48.3466 35.3092 47.6726 39.0625 45.5737C42.8158 43.4749 45.6892 40.0917 47.1567 36.0434L45.346 33.4137C44.4863 37.2158 42.2266 40.5529 39.0184 42.7581C35.8102 44.9633 31.8897 45.8743 28.0405 45.3089C24.1912 44.7436 20.6965 42.7436 18.2547 39.7086C15.8129 36.6736 14.6039 32.8271 14.8691 28.9376C15.1344 25.0482 16.8544 21.4023 19.6856 18.7284C22.5167 16.0545 26.2504 14.5495 30.1406 14.5142C34.0309 14.4789 37.7912 15.9159 40.6702 18.538C43.5492 21.1601 45.3348 24.7742 45.6703 28.6582H41.4541C41.1167 25.8962 39.7621 23.3601 37.6559 21.5469C35.5496 19.7336 32.8435 18.774 30.068 18.856C27.2924 18.938 24.6474 20.0558 22.6515 21.9902C20.6555 23.9247 19.4524 26.5364 19.278 29.3135C19.1036 32.0905 19.9704 34.8327 21.7086 37.0027C23.4468 39.1727 25.931 40.6139 28.6745 41.044C31.4179 41.4741 34.2227 40.862 36.5391 39.3277C38.8556 37.7933 40.5168 35.4474 41.1971 32.7497H38.5968C37.9152 34.7878 36.5111 36.5046 34.6507 37.5746C32.7903 38.6446 30.6028 38.9936 28.5028 38.5553C26.4028 38.1171 24.5362 36.9221 23.2567 35.1968C21.9772 33.4715 21.3738 31.3358 21.5607 29.1945C21.7477 27.0531 22.7121 25.0549 24.2711 23.5785C25.8301 22.1021 27.8755 21.2501 30.0195 21.1839C32.1636 21.1178 34.2574 21.8421 35.9041 23.2196C37.5508 24.5971 38.636 26.5321 38.954 28.6579H34.0991C33.8177 27.8485 33.2811 27.1527 32.5704 26.6757C31.8597 26.1987 31.0135 25.9663 30.1594 26.0136C29.3053 26.0609 28.4897 26.3853 27.8358 26.9379C27.1819 27.4904 26.725 28.2412 26.5343 29.0768C26.3435 29.9124 26.4292 30.7874 26.7784 31.57C27.1276 32.3525 27.7213 32.9999 28.4699 33.4146C29.2185 33.8293 30.0814 33.9887 30.9284 33.8687C31.7754 33.7488 32.5604 33.356 33.1651 32.7497H31.5435C31.1465 32.7497 30.7657 32.5916 30.485 32.3103C30.2043 32.029 30.0466 31.6475 30.0466 31.2497C30.0539 31.1059 30.0825 30.964 30.1314 30.8287C30.3565 31.0372 30.6511 31.1543 30.9577 31.1569H45.7806L48.1007 34.4529C48.2156 34.6166 48.3681 34.7503 48.5453 34.8425C48.7226 34.9347 48.9194 34.9828 49.1191 34.9827H54.3011C54.5295 34.9823 54.7534 34.9192 54.9485 34.8002C55.1436 34.6812 55.3024 34.5109 55.4077 34.3077C55.5129 34.1046 55.5606 33.8764 55.5455 33.6481C55.5304 33.4197 55.453 33.1998 55.3219 33.0124L53.1522 29.9274Z" fill="white"/>
</svg>
