<svg width="61" height="60" viewBox="0 0 61 60" fill="none" xmlns="http://www.w3.org/2000/svg">
<path d="M30.8765 57.4228C46.0643 57.4228 58.3765 45.1107 58.3765 29.9228C58.3765 14.735 46.0643 2.42285 30.8765 2.42285C15.6886 2.42285 3.37646 14.735 3.37646 29.9228C3.37646 45.1107 15.6886 57.4228 30.8765 57.4228Z" fill="#405F9E"/>
<path d="M32.6802 46.0081C32.2537 46.0083 31.8398 45.863 31.5069 45.5963C31.174 45.3295 30.942 44.9572 30.8492 44.5408L26.318 24.1551L23.8595 33.7646C23.7565 34.1682 23.522 34.5259 23.1931 34.7815C22.8642 35.037 22.4595 35.1758 22.043 35.1758H16.396C15.8987 35.1758 15.4218 34.9783 15.0702 34.6267C14.7185 34.275 14.521 33.7981 14.521 33.3008C14.521 32.8035 14.7185 32.3266 15.0702 31.975C15.4218 31.6234 15.8987 31.4258 16.396 31.4258H20.588L24.631 15.6271C24.7588 15.2321 25.0039 14.8855 25.3336 14.6334C25.6634 14.3813 26.0621 14.2356 26.4767 14.2158C26.8983 14.2222 27.3054 14.3705 27.6323 14.6367C27.9592 14.9029 28.1869 15.2716 28.2785 15.6831L32.5802 35.0458L34.565 25.1068C34.642 24.7214 34.8382 24.3698 35.1259 24.1019C35.4135 23.8341 35.7781 23.6634 36.1681 23.614C36.5581 23.5646 36.9537 23.639 37.2991 23.8267C37.6444 24.0144 37.9221 24.306 38.0927 24.6601L40.92 30.5293H45.7662C46.2635 30.5293 46.7404 30.7269 47.0921 31.0785C47.4437 31.4301 47.6412 31.907 47.6412 32.4043C47.6412 32.9016 47.4437 33.3785 47.0921 33.7302C46.7404 34.0818 46.2635 34.2793 45.7662 34.2793H39.7412C39.3882 34.2793 39.0424 34.1796 38.7435 33.9918C38.4446 33.8039 38.2048 33.5354 38.0517 33.2173L37.146 31.3373L34.519 44.4988C34.4347 44.9207 34.208 45.3008 33.8769 45.5755C33.5458 45.8501 33.1304 46.0027 32.7002 46.0076L32.6802 46.0081Z" fill="white"/>
</svg>
