<svg width="61" height="60" viewBox="0 0 61 60" fill="none" xmlns="http://www.w3.org/2000/svg">
<path d="M30.0781 57.5303C45.266 57.5303 57.5781 45.2181 57.5781 30.0303C57.5781 14.8424 45.266 2.53027 30.0781 2.53027C14.8903 2.53027 2.57812 14.8424 2.57812 30.0303C2.57812 45.2181 14.8903 57.5303 30.0781 57.5303Z" fill="#405F9E"/>
<path d="M41.3857 20.2912C39.3406 20.6749 37.2269 20.4162 35.3347 19.5507C33.4425 18.6852 31.8646 17.2553 30.8174 15.4572C30.7301 15.3443 30.6181 15.2528 30.4899 15.1899C30.3618 15.127 30.2209 15.0942 30.0782 15.0942C29.9354 15.0942 29.7945 15.127 29.6664 15.1899C29.5382 15.2528 29.4262 15.3443 29.3389 15.4572C28.2884 17.2513 26.7105 18.678 24.8201 19.5432C22.9297 20.4084 20.8186 20.67 18.7742 20.2925C18.6398 20.2526 18.4981 20.2447 18.3601 20.2693C18.2222 20.2939 18.0919 20.3504 17.9797 20.4342C17.8674 20.518 17.7763 20.6269 17.7135 20.7522C17.6507 20.8774 17.6181 21.0156 17.6182 21.1557V29.6322C17.6182 41.4632 29.7182 44.9 29.8414 44.9322C29.9969 44.9746 30.1609 44.9746 30.3164 44.9322C30.4389 44.8987 42.5397 41.462 42.5397 29.6322V21.156C42.5391 21.0162 42.5062 20.8785 42.4435 20.7536C42.3807 20.6287 42.2898 20.5201 42.178 20.4363C42.0661 20.3525 41.9364 20.2958 41.7989 20.2706C41.6614 20.2454 41.5199 20.2525 41.3857 20.2912ZM36.3157 27.1027L29.1407 35.7892C29.0272 35.9263 28.886 36.0376 28.7262 36.1159C28.5665 36.1941 28.392 36.2376 28.2142 36.2432H28.1764C28.0049 36.2432 27.8352 36.2078 27.6779 36.1393C27.5206 36.0709 27.3791 35.9708 27.2622 35.8452L23.3934 31.6927C23.1759 31.4489 23.0625 31.1295 23.0776 30.803C23.0926 30.4766 23.235 30.169 23.474 29.9462C23.7131 29.7234 24.0299 29.6031 24.3567 29.611C24.6834 29.619 24.994 29.7546 25.2219 29.9887L28.1219 33.099L34.3872 25.511C34.4917 25.3843 34.6201 25.2795 34.7651 25.2025C34.9102 25.1255 35.0689 25.0778 35.2324 25.0622C35.3958 25.0465 35.5608 25.0632 35.7178 25.1113C35.8748 25.1594 36.0208 25.238 36.1474 25.3425C36.2741 25.447 36.3789 25.5754 36.4559 25.7205C36.5329 25.8655 36.5806 26.0243 36.5962 26.1877C36.6119 26.3512 36.5952 26.5161 36.5471 26.6731C36.499 26.8301 36.4204 26.9761 36.3159 27.1027H36.3157Z" fill="white"/>
</svg>
