<svg width="26" height="26" viewBox="0 0 26 26" fill="none" xmlns="http://www.w3.org/2000/svg">
<circle cx="13" cy="13" r="13" fill="white"/>
<path d="M10.7359 12.258H11.9359C12.6259 12.258 13.1709 12.108 13.5709 11.808C13.9809 11.498 14.1859 11.083 14.1859 10.563C14.1859 10.043 14.0109 9.64801 13.6609 9.37801C13.3109 9.09801 12.8359 8.95801 12.2359 8.95801C11.6959 8.95801 11.2159 9.03301 10.7959 9.18301L10.5859 9.25801L10.4359 10.608H9.23592L9.16092 8.28301C10.2409 7.88301 11.3059 7.68301 12.3559 7.68301C13.3959 7.68301 14.2209 7.89801 14.8309 8.32801C15.4509 8.74801 15.7609 9.40801 15.7609 10.308C15.7609 11.648 15.1109 12.483 13.8109 12.813C14.4809 12.953 15.0109 13.248 15.4009 13.698C15.7909 14.138 15.9859 14.643 15.9859 15.213C15.9859 15.793 15.8709 16.293 15.6409 16.713C15.4109 17.123 15.1059 17.458 14.7259 17.718C14.3559 17.978 13.9309 18.173 13.4509 18.303C12.9809 18.423 12.5009 18.483 12.0109 18.483C11.7209 18.483 11.4359 18.463 11.1559 18.423C10.8759 18.393 10.6159 18.353 10.3759 18.303C10.1359 18.243 9.92092 18.178 9.73092 18.108C9.54092 18.038 9.38592 17.973 9.26592 17.913L8.93592 17.733L9.38592 16.533C10.2359 16.983 11.1359 17.208 12.0859 17.208C12.7759 17.208 13.3209 17.043 13.7209 16.713C14.1309 16.383 14.3359 15.918 14.3359 15.318C14.3359 14.718 14.1109 14.258 13.6609 13.938C13.2209 13.618 12.6209 13.458 11.8609 13.458H10.7359V12.258Z" fill="#FA6E55"/>
</svg>
