<svg width="61" height="60" viewBox="0 0 61 60" fill="none" xmlns="http://www.w3.org/2000/svg">
<path d="M30.4887 57.4429C45.645 57.4429 57.9316 45.1307 57.9316 29.9429C57.9316 14.755 45.645 2.44287 30.4887 2.44287C15.3325 2.44287 3.0459 14.755 3.0459 29.9429C3.0459 45.1307 15.3325 57.4429 30.4887 57.4429Z" fill="#405F9E"/>
<path d="M23.1971 24.9185H17.8218C17.5945 24.9296 17.3808 25.0306 17.2276 25.1993C17.0743 25.3679 16.9941 25.5906 17.0043 25.8185V44.017C16.9943 44.2448 17.0746 44.4673 17.2278 44.636C17.381 44.8046 17.5946 44.9056 17.8218 44.917H23.1971C23.4243 44.9054 23.6376 44.8042 23.7905 44.6356C23.9435 44.467 24.0237 44.2446 24.0137 44.017V25.8187C24.0239 25.591 23.9438 25.3684 23.7908 25.1997C23.6378 25.0311 23.4243 24.9299 23.1971 24.9185Z" fill="white"/>
<path d="M33.1757 29.9185H27.7999C27.5728 29.9298 27.3595 30.0309 27.2067 30.1996C27.0539 30.3683 26.9741 30.5909 26.9848 30.8185V44.0167C26.9743 44.2443 27.0541 44.4667 27.2069 44.6354C27.3596 44.8041 27.5729 44.9052 27.7999 44.9167H33.1757C33.4029 44.9052 33.6164 44.8041 33.7695 44.6355C33.9227 44.4669 34.0031 44.2445 33.9932 44.0167V30.8192C34.0035 30.5913 33.9232 30.3685 33.77 30.1997C33.6168 30.0309 33.4031 29.9298 33.1757 29.9185Z" fill="white"/>
<path d="M43.1573 14.9185H37.7823C37.555 14.9299 37.3416 15.0309 37.1885 15.1996C37.0354 15.3682 36.9551 15.5907 36.9652 15.8185V44.0172C36.9551 44.245 37.0354 44.4675 37.1885 44.6361C37.3416 44.8047 37.555 44.9058 37.7823 44.9172H43.1576C43.3846 44.9057 43.5979 44.8045 43.7507 44.6359C43.9035 44.4672 43.9835 44.2448 43.9731 44.0172V15.8192C43.9837 15.5915 43.9038 15.3688 43.7509 15.2C43.598 15.0311 43.3845 14.9299 43.1573 14.9185Z" fill="white"/>
</svg>
