<svg width="61" height="60" viewBox="0 0 61 60" fill="none" xmlns="http://www.w3.org/2000/svg">
<path d="M30.8706 57.5356C46.0584 57.5356 58.3706 45.2235 58.3706 30.0356C58.3706 14.8478 46.0584 2.53564 30.8706 2.53564C15.6828 2.53564 3.37061 14.8478 3.37061 30.0356C3.37061 45.2235 15.6828 57.5356 30.8706 57.5356Z" fill="#405F9E"/>
<path d="M42.6514 17.5H19.0039C18.1621 17.5005 17.3549 17.835 16.7594 18.43C16.1639 19.025 15.8288 19.832 15.8276 20.6737V36.825C15.8285 37.667 16.1635 38.4743 16.759 39.0696C17.3545 39.6648 18.1619 39.9995 19.0039 40H26.9164V42.5H25.6664C25.3349 42.5 25.0169 42.6317 24.7825 42.8661C24.5481 43.1005 24.4164 43.4185 24.4164 43.75C24.4164 44.0815 24.5481 44.3995 24.7825 44.6339C25.0169 44.8683 25.3349 45 25.6664 45H35.4504C35.7819 45 36.0998 44.8683 36.3343 44.6339C36.5687 44.3995 36.7004 44.0815 36.7004 43.75C36.7004 43.4185 36.5687 43.1005 36.3343 42.8661C36.0998 42.6317 35.7819 42.5 35.4504 42.5H34.2004V40H42.6504C43.4926 39.9997 44.3002 39.6652 44.896 39.0699C45.4917 38.4746 45.8268 37.6672 45.8276 36.825V20.6737C45.8264 19.832 45.4913 19.025 44.8959 18.43C44.3004 17.835 43.4932 17.5005 42.6514 17.5ZM43.3276 36.825C43.3272 37.0041 43.2558 37.1758 43.1291 37.3023C43.0023 37.4288 42.8305 37.4999 42.6514 37.5H19.0039C18.8248 37.4999 18.653 37.4288 18.5262 37.3023C18.3994 37.1758 18.328 37.0041 18.3276 36.825V20.6737C18.3284 20.4949 18.3999 20.3235 18.5267 20.1973C18.6534 20.071 18.825 20.0001 19.0039 20H42.6514C42.8305 20.0001 43.0023 20.0712 43.1291 20.1977C43.2558 20.3242 43.3272 20.4959 43.3276 20.675V36.825Z" fill="white"/>
</svg>
