<svg width="61" height="60" viewBox="0 0 61 60" fill="none" xmlns="http://www.w3.org/2000/svg">
<path d="M27.5547 57.5356C42.7425 57.5356 55.0547 45.2235 55.0547 30.0356C55.0547 14.8478 42.7425 2.53564 27.5547 2.53564C12.3669 2.53564 0.0546875 14.8478 0.0546875 30.0356C0.0546875 45.2235 12.3669 57.5356 27.5547 57.5356Z" fill="#405F9E"/>
<path d="M27.5548 18.2925C24.7304 18.3781 22.0554 19.5809 20.1171 21.637C18.1787 23.693 17.1354 26.4342 17.2163 29.2587C17.2159 30.4615 17.4031 31.6569 17.771 32.802L18.4928 36.3947H18.5238C18.89 41.345 22.7908 46.2997 27.5548 46.2997C31.8168 46.2997 35.3673 42.3302 36.3348 37.9482C34.2869 39.0305 32.0132 39.6161 29.6973 39.6577C29.4969 39.9606 29.2255 40.2099 28.9067 40.3839C28.5879 40.5579 28.2314 40.6513 27.8683 40.656C27.2668 40.656 26.6899 40.417 26.2646 39.9917C25.8392 39.5664 25.6003 38.9895 25.6003 38.388C25.6003 37.7865 25.8392 37.2096 26.2646 36.7843C26.6899 36.3589 27.2668 36.12 27.8683 36.12C28.2392 36.1247 28.6031 36.222 28.927 36.4029C29.2508 36.5839 29.5243 36.8428 29.7228 37.1562C31.1281 37.2031 32.5257 36.9289 33.8091 36.3546C35.0926 35.7802 36.2283 34.9209 37.1298 33.8417L37.3388 32.8017C37.707 31.6567 37.8941 30.4612 37.8933 29.2585C37.9741 26.434 36.9308 23.6929 34.9924 21.6369C33.0541 19.5809 30.3791 18.3781 27.5548 18.2925Z" fill="white"/>
<path d="M43.0009 25.8615C42.4457 22.162 40.5811 18.7847 37.7464 16.3437C34.9117 13.9027 31.295 12.5601 27.5541 12.5601C23.8132 12.5601 20.1966 13.9027 17.3619 16.3437C14.5271 18.7847 12.6626 22.162 12.1074 25.8615C11.7887 25.876 11.4877 26.0125 11.2669 26.2428C11.0461 26.4731 10.9224 26.7795 10.9214 27.0985V33.783C10.9214 34.1145 11.0531 34.4325 11.2875 34.6669C11.5219 34.9013 11.8399 35.033 12.1714 35.033H14.1539C14.4854 35.033 14.8033 34.9013 15.0378 34.6669C15.2722 34.4325 15.4039 34.1145 15.4039 33.783V27.0988C15.404 26.853 15.3317 26.6126 15.196 26.4077C15.0603 26.2029 14.8672 26.0425 14.6409 25.9468C15.1635 22.9005 16.7461 20.137 19.1092 18.1448C21.4722 16.1526 24.4635 15.06 27.5543 15.06C30.645 15.06 33.6363 16.1526 35.9993 18.1448C38.3624 20.137 39.9451 22.9005 40.4676 25.9468C40.2413 26.0425 40.0482 26.2029 39.9125 26.4077C39.7768 26.6126 39.7045 26.853 39.7046 27.0988V33.7833C39.7046 34.1148 39.8363 34.4327 40.0708 34.6671C40.3052 34.9016 40.6231 35.0333 40.9546 35.0333H42.9371C43.2687 35.0333 43.5866 34.9016 43.821 34.6671C44.0554 34.4327 44.1871 34.1148 44.1871 33.7833V27.0988C44.1862 26.7796 44.0624 26.4731 43.8416 26.2428C43.6207 26.0124 43.3197 25.8759 43.0009 25.8615Z" fill="white"/>
</svg>
