<svg width="26" height="26" viewBox="0 0 26 26" fill="none" xmlns="http://www.w3.org/2000/svg">
<circle cx="13" cy="13" r="13" fill="white"/>
<path d="M9.15711 18.333V17.058C10.1671 16.158 11.0021 15.393 11.6621 14.763C12.3321 14.133 12.8621 13.583 13.2521 13.113C13.6521 12.643 13.9321 12.223 14.0921 11.853C14.2521 11.473 14.3321 11.083 14.3321 10.683C14.3321 10.143 14.1521 9.72301 13.7921 9.42301C13.4321 9.11301 12.9371 8.95801 12.3071 8.95801C11.8171 8.95801 11.3621 9.03301 10.9421 9.18301L10.7321 9.25801L10.5821 10.683H9.38211L9.30711 8.28301C10.3871 7.88301 11.4671 7.68301 12.5471 7.68301C13.0671 7.68301 13.5371 7.73801 13.9571 7.84801C14.3771 7.94801 14.7421 8.11301 15.0521 8.34301C15.3621 8.56301 15.5921 8.85301 15.7421 9.21301C15.9021 9.56301 15.9821 9.98301 15.9821 10.473C15.9821 10.973 15.8971 11.453 15.7271 11.913C15.5671 12.373 15.2971 12.858 14.9171 13.368C14.5471 13.868 14.0621 14.418 13.4621 15.018C12.8621 15.608 12.1271 16.288 11.2571 17.058H16.2821V18.333H9.15711Z" fill="#FA6E55"/>
</svg>
