<svg width="64" height="75" viewBox="0 0 64 75" fill="none" xmlns="http://www.w3.org/2000/svg">
<rect y="11" width="64" height="64" rx="32" fill="#405F9E"/>
<path d="M54.4298 50.519C54.8371 50.519 55.1504 50.707 55.3698 51.083C55.6204 51.459 55.7458 51.976 55.7458 52.634C55.7458 53.856 55.4481 54.8273 54.8528 55.548C53.3488 57.3653 51.8291 58.7753 50.2938 59.778C48.7584 60.7493 46.9411 61.235 44.8418 61.235C42.8051 61.235 41.0661 60.6867 39.6248 59.59C38.2148 58.4933 36.8674 56.6133 35.5828 53.95C34.5488 51.8193 33.7341 50.2527 33.1388 49.25C32.5434 48.216 31.9481 47.4797 31.3528 47.041C30.7888 46.6023 30.0838 46.336 29.2378 46.242C29.1124 46.9 28.7521 48.968 28.1568 52.446C27.9061 54.0127 27.7494 54.9683 27.6868 55.313C27.3734 57.2243 26.7468 58.697 25.8068 59.731C24.8668 60.7337 23.4411 61.235 21.5298 61.235C19.4304 61.235 17.5661 60.624 15.9368 59.402C14.3388 58.1487 13.1011 56.4253 12.2238 54.232C11.3464 52.0073 10.9078 49.485 10.9078 46.665C10.9078 41.401 11.8164 36.8577 13.6338 33.035C15.4824 29.2123 18.0518 26.2983 21.3418 24.293C24.6631 22.2563 28.4858 21.238 32.8098 21.238C35.8178 21.238 38.3401 21.6923 40.3768 22.601C42.4134 23.5097 43.9174 24.763 44.8888 26.361C45.8914 27.959 46.3928 29.7607 46.3928 31.766C46.3928 33.5207 45.9698 35.244 45.1238 36.936C44.3091 38.5967 43.0714 40.0693 41.4108 41.354C39.7501 42.6387 37.7291 43.5943 35.3478 44.221C36.8518 44.6283 38.0111 45.2863 38.8258 46.195C39.6404 47.1037 40.4551 48.4353 41.2698 50.19C42.1471 52.07 43.0088 53.4487 43.8548 54.326C44.7321 55.2033 45.7348 55.642 46.8628 55.642C47.8654 55.642 48.8211 55.313 49.7298 54.655C50.6384 53.9657 51.7821 52.8063 53.1608 51.177C53.5368 50.7383 53.9598 50.519 54.4298 50.519ZM22.7518 46.195C21.6864 46.195 20.9501 45.9443 20.5428 45.443C20.1668 44.9417 19.9788 44.3777 19.9788 43.751C19.9788 42.999 20.2138 42.4037 20.6838 41.965C21.1851 41.5263 21.7491 41.307 22.3758 41.307H23.5508C24.0521 38.2363 24.5221 35.5887 24.9608 33.364C25.3681 31.3273 26.6841 30.309 28.9088 30.309C30.6948 30.309 31.5878 31.108 31.5878 32.706C31.5878 33.0507 31.5721 33.317 31.5408 33.505L30.1308 41.307C31.8228 41.213 33.3581 40.8057 34.7368 40.085C36.1468 39.3643 37.2591 38.3617 38.0738 37.077C38.9198 35.7923 39.3428 34.3353 39.3428 32.706C39.3428 30.732 38.6691 29.181 37.3218 28.053C35.9744 26.925 34.0004 26.361 31.3998 26.361C28.3291 26.361 25.6344 27.1287 23.3158 28.664C21.0284 30.168 19.2424 32.424 17.9578 35.432C16.6731 38.4087 16.0308 42.0433 16.0308 46.336C16.0308 48.3413 16.2344 50.0647 16.6418 51.506C17.0491 52.9473 17.5504 54.0283 18.1458 54.749C18.7411 55.4697 19.3051 55.83 19.8378 55.83C20.2451 55.83 20.5741 55.6263 20.8248 55.219C21.1068 54.8117 21.3261 54.1537 21.4828 53.245L22.7518 46.195Z" fill="white"/>
</svg>
