<svg width="295" height="99" viewBox="0 0 295 99" fill="none" xmlns="http://www.w3.org/2000/svg">
<path d="M58.7164 63.066C59.219 63.066 59.6057 63.298 59.8764 63.762C60.1857 64.226 60.3404 64.864 60.3404 65.676C60.3404 67.184 59.973 68.3827 59.2384 69.272C57.3824 71.5147 55.507 73.2547 53.6124 74.492C51.7177 75.6907 49.475 76.29 46.8844 76.29C44.371 76.29 42.225 75.6133 40.4464 74.26C38.7064 72.9067 37.0437 70.5867 35.4584 67.3C34.1824 64.6707 33.177 62.7373 32.4424 61.5C31.7077 60.224 30.973 59.3153 30.2384 58.774C29.5424 58.2327 28.6724 57.904 27.6284 57.788C27.4737 58.6 27.029 61.152 26.2944 65.444C25.985 67.3773 25.7917 68.5567 25.7144 68.982C25.3277 71.3407 24.5544 73.158 23.3944 74.434C22.2344 75.6713 20.475 76.29 18.1164 76.29C15.5257 76.29 13.225 75.536 11.2144 74.028C9.24236 72.4813 7.71503 70.3547 6.63236 67.648C5.54969 64.9027 5.00836 61.79 5.00836 58.31C5.00836 51.814 6.12969 46.2073 8.37236 41.49C10.6537 36.7727 13.8244 33.1767 17.8844 30.702C21.983 28.1887 26.7004 26.932 32.0364 26.932C35.7484 26.932 38.861 27.4927 41.3744 28.614C43.8877 29.7353 45.7437 31.282 46.9424 33.254C48.1797 35.226 48.7984 37.4493 48.7984 39.924C48.7984 42.0893 48.2764 44.216 47.2324 46.304C46.227 48.3533 44.6997 50.1707 42.6504 51.756C40.601 53.3413 38.107 54.5207 35.1684 55.294C37.0244 55.7967 38.455 56.6087 39.4604 57.73C40.4657 58.8513 41.471 60.4947 42.4764 62.66C43.559 64.98 44.6224 66.6813 45.6664 67.764C46.749 68.8467 47.9864 69.388 49.3784 69.388C50.6157 69.388 51.795 68.982 52.9164 68.17C54.0377 67.3193 55.449 65.8887 57.1504 63.878C57.6144 63.3367 58.1364 63.066 58.7164 63.066ZM19.6244 57.73C18.3097 57.73 17.401 57.4207 16.8984 56.802C16.4344 56.1833 16.2024 55.4873 16.2024 54.714C16.2024 53.786 16.4924 53.0513 17.0724 52.51C17.691 51.9687 18.387 51.698 19.1604 51.698H20.6104C21.229 47.9087 21.809 44.6413 22.3504 41.896C22.853 39.3827 24.477 38.126 27.2224 38.126C29.4264 38.126 30.5284 39.112 30.5284 41.084C30.5284 41.5093 30.509 41.838 30.4704 42.07L28.7304 51.698C30.8184 51.582 32.713 51.0793 34.4144 50.19C36.1544 49.3007 37.527 48.0633 38.5324 46.478C39.5764 44.8927 40.0984 43.0947 40.0984 41.084C40.0984 38.648 39.267 36.734 37.6044 35.342C35.9417 33.95 33.5057 33.254 30.2964 33.254C26.507 33.254 23.1817 34.2013 20.3204 36.096C17.4977 37.952 15.2937 40.736 13.7084 44.448C12.123 48.1213 11.3304 52.6067 11.3304 57.904C11.3304 60.3787 11.5817 62.5053 12.0844 64.284C12.587 66.0627 13.2057 67.3967 13.9404 68.286C14.675 69.1753 15.371 69.62 16.0284 69.62C16.531 69.62 16.937 69.3687 17.2464 68.866C17.5944 68.3633 17.865 67.5513 18.0584 66.43L19.6244 57.73ZM61.6368 76.29C59.2394 76.29 57.3254 75.42 55.8948 73.68C54.4641 71.94 53.7488 69.6587 53.7488 66.836C53.7488 63.7427 54.4641 60.8233 55.8948 58.078C57.3254 55.294 59.2201 53.0707 61.5788 51.408C63.9761 49.7067 66.5088 48.856 69.1768 48.856C70.0274 48.856 70.5881 49.03 70.8588 49.378C71.1681 49.6873 71.4194 50.2673 71.6128 51.118C72.4248 50.9633 73.2754 50.886 74.1648 50.886C76.0594 50.886 77.0068 51.5627 77.0068 52.916C77.0068 53.728 76.7168 55.6613 76.1368 58.716C75.2474 63.1627 74.8028 66.256 74.8028 67.996C74.8028 68.576 74.9381 69.04 75.2088 69.388C75.5181 69.736 75.9048 69.91 76.3688 69.91C77.1034 69.91 77.9928 69.446 79.0368 68.518C80.0808 67.5513 81.4921 66.0047 83.2708 63.878C83.7348 63.3367 84.2568 63.066 84.8368 63.066C85.3394 63.066 85.7261 63.298 85.9968 63.762C86.3061 64.226 86.4608 64.864 86.4608 65.676C86.4608 67.2227 86.0934 68.4213 85.3588 69.272C83.7734 71.244 82.0914 72.9067 80.3128 74.26C78.5341 75.6133 76.8134 76.29 75.1508 76.29C73.8748 76.29 72.6954 75.8647 71.6128 75.014C70.5688 74.1247 69.7761 72.926 69.2348 71.418C67.2241 74.666 64.6914 76.29 61.6368 76.29ZM63.7248 70.432C64.5754 70.432 65.3874 69.9293 66.1608 68.924C66.9341 67.9187 67.4948 66.5847 67.8428 64.922L69.9888 54.25C68.3648 54.2887 66.8568 54.9073 65.4648 56.106C64.1114 57.266 63.0288 58.8127 62.2168 60.746C61.4048 62.6793 60.9988 64.7287 60.9988 66.894C60.9988 68.0927 61.2308 68.982 61.6948 69.562C62.1974 70.142 62.8741 70.432 63.7248 70.432ZM111.023 58.368C111.139 58.3293 111.333 58.31 111.603 58.31C112.183 58.31 112.628 58.5033 112.937 58.89C113.247 59.2767 113.401 59.7987 113.401 60.456C113.401 61.6547 113.169 62.602 112.705 63.298C112.241 63.9553 111.545 64.4387 110.617 64.748C108.839 65.328 106.944 65.618 104.933 65.618C103.232 65.618 101.627 65.386 100.119 64.922C98.998 66.7393 97.7606 68.6147 96.4073 70.548C94.8606 72.752 93.5266 74.26 92.4053 75.072C91.284 75.884 90.008 76.29 88.5773 76.29C86.992 76.29 85.7353 75.6713 84.8073 74.434C83.918 73.1967 83.3573 71.244 83.1253 68.576C82.6613 63.1627 82.4293 58.426 82.4293 54.366V52.336C82.468 51.06 82.816 50.1707 83.4733 49.668C84.1306 49.1653 85.1166 48.914 86.4313 48.914C87.4366 48.914 88.1713 49.146 88.6353 49.61C89.138 50.0353 89.3893 50.77 89.3893 51.814C89.3893 56.2607 89.66 62.0413 90.2013 69.156C92.5213 65.7147 94.2613 62.9693 95.4213 60.92C94.8413 59.7987 94.5513 58.4647 94.5513 56.918C94.5513 55.6033 94.8413 54.3273 95.4213 53.09C96.0013 51.8527 96.794 50.8473 97.7993 50.074C98.8046 49.3007 99.9453 48.914 101.221 48.914C102.343 48.914 103.251 49.32 103.947 50.132C104.643 50.9053 104.991 52.046 104.991 53.554C104.991 55.294 104.527 57.2853 103.599 59.528C105.069 59.4507 107.021 59.1607 109.457 58.658L111.023 58.368ZM115.502 76.29C113.105 76.29 111.191 75.42 109.76 73.68C108.329 71.94 107.614 69.6587 107.614 66.836C107.614 63.7427 108.329 60.8233 109.76 58.078C111.191 55.294 113.085 53.0707 115.444 51.408C117.841 49.7067 120.374 48.856 123.042 48.856C123.893 48.856 124.453 49.03 124.724 49.378C125.033 49.6873 125.285 50.2673 125.478 51.118C126.29 50.9633 127.141 50.886 128.03 50.886C129.925 50.886 130.872 51.5627 130.872 52.916C130.872 53.728 130.582 55.6613 130.002 58.716C129.113 63.1627 128.668 66.256 128.668 67.996C128.668 68.576 128.803 69.04 129.074 69.388C129.383 69.736 129.77 69.91 130.234 69.91C130.969 69.91 131.858 69.446 132.902 68.518C133.946 67.5513 135.357 66.0047 137.136 63.878C137.6 63.3367 138.122 63.066 138.702 63.066C139.205 63.066 139.591 63.298 139.862 63.762C140.171 64.226 140.326 64.864 140.326 65.676C140.326 67.2227 139.959 68.4213 139.224 69.272C137.639 71.244 135.957 72.9067 134.178 74.26C132.399 75.6133 130.679 76.29 129.016 76.29C127.74 76.29 126.561 75.8647 125.478 75.014C124.434 74.1247 123.641 72.926 123.1 71.418C121.089 74.666 118.557 76.29 115.502 76.29ZM117.59 70.432C118.441 70.432 119.253 69.9293 120.026 68.924C120.799 67.9187 121.36 66.5847 121.708 64.922L123.854 54.25C122.23 54.2887 120.722 54.9073 119.33 56.106C117.977 57.266 116.894 58.8127 116.082 60.746C115.27 62.6793 114.864 64.7287 114.864 66.894C114.864 68.0927 115.096 68.982 115.56 69.562C116.063 70.142 116.739 70.432 117.59 70.432ZM152.374 67.822C152.799 67.4353 153.225 67.242 153.65 67.242C154.114 67.242 154.481 67.5127 154.752 68.054C155.061 68.5567 155.216 69.1753 155.216 69.91C155.216 71.534 154.636 72.8293 153.476 73.796C151.465 75.4587 149.184 76.29 146.632 76.29C142.959 76.29 140.271 74.7627 138.57 71.708C136.869 68.6147 136.018 64.5933 136.018 59.644C136.018 54.9267 136.617 49.552 137.816 43.52C139.053 37.488 140.851 32.3067 143.21 27.976C145.607 23.6453 148.449 21.48 151.736 21.48C153.592 21.48 155.042 22.35 156.086 24.09C157.169 25.7913 157.71 28.2467 157.71 31.456C157.71 36.0573 156.434 41.3933 153.882 47.464C151.369 53.5347 147.927 59.528 143.558 65.444C143.829 67.0293 144.312 68.17 145.008 68.866C145.704 69.562 146.651 69.91 147.85 69.91C148.507 69.91 149.242 69.7167 150.054 69.33C150.905 68.9433 151.678 68.4407 152.374 67.822ZM150.46 27.222C149.571 27.222 148.565 28.8267 147.444 32.036C146.323 35.2453 145.337 39.228 144.486 43.984C143.635 48.74 143.171 53.3027 143.094 57.672C145.839 53.148 148.024 48.624 149.648 44.1C151.272 39.5373 152.084 35.3807 152.084 31.63C152.084 28.6913 151.543 27.222 150.46 27.222Z" fill="white"/>
<path d="M181.081 75V69.825L186.601 68.376L184.117 59.958H170.593L167.971 68.652L174.043 69.756V75H157.552L156.655 69.618L160.45 68.376L174.112 27.39H182.668L196.537 68.376L199.711 69.618L199.021 75H181.081ZM172.732 52.713H181.081L177.424 37.188L172.732 52.713ZM213.829 41.121C215.485 41.121 217.049 41.42 218.521 42.018V30.288H215.002L214.243 25.596L224.455 24.147L226.87 26.7V67.755C226.87 68.767 227.307 69.273 228.181 69.273C228.641 69.273 229.147 69.135 229.699 68.859L231.01 72.447C230.228 73.505 228.94 74.333 227.146 74.931C226.456 75.161 225.697 75.276 224.869 75.276C222.293 75.276 220.476 74.31 219.418 72.378C217.762 74.31 215.324 75.276 212.104 75.276C208.194 75.276 205.043 73.827 202.651 70.929C200.213 67.939 198.994 63.914 198.994 58.854C198.994 52.598 200.673 47.906 204.031 44.778C206.653 42.34 209.919 41.121 213.829 41.121ZM218.521 48.918C217.509 47.998 216.152 47.538 214.45 47.538C211.322 47.538 209.229 49.447 208.171 53.265C207.757 54.737 207.55 56.876 207.55 59.682C207.55 62.442 208.079 64.65 209.137 66.306C210.241 67.916 211.759 68.721 213.691 68.721C214.657 68.721 215.646 68.399 216.658 67.755C217.67 67.111 218.291 66.306 218.521 65.34V48.918ZM239.304 64.029L241.098 68.514C241.512 68.652 242.133 68.721 242.961 68.721C243.789 68.721 244.41 68.675 244.824 68.583C245.238 68.445 245.629 68.238 245.997 67.962C246.779 67.41 247.17 66.697 247.17 65.823C247.17 64.949 246.917 64.282 246.411 63.822C245.951 63.316 245.376 62.902 244.686 62.58C243.996 62.258 243.283 61.982 242.547 61.752C241.811 61.522 241.213 61.292 240.753 61.062C237.533 59.774 235.279 58.302 233.991 56.646C232.703 54.944 232.059 53.265 232.059 51.609C232.059 49.907 232.358 48.458 232.956 47.262C233.554 46.02 234.405 44.962 235.509 44.088C237.855 42.11 240.684 41.121 243.996 41.121C248.412 41.121 251.816 42.616 254.208 45.606C254.852 46.434 255.358 47.216 255.726 47.952L246.963 51.471L245.307 47.952C244.847 47.722 244.295 47.607 243.651 47.607C241.627 47.607 240.615 48.481 240.615 50.229C240.615 50.919 240.983 51.517 241.719 52.023C242.455 52.529 243.375 53.035 244.479 53.541C245.583 54.047 246.779 54.599 248.067 55.197C249.401 55.795 250.62 56.508 251.724 57.336C254.3 59.268 255.588 61.706 255.588 64.65C255.588 67.916 254.346 70.538 251.862 72.516C249.516 74.31 246.664 75.207 243.306 75.207C240.178 75.207 237.395 74.356 234.957 72.654C232.795 71.182 231.3 69.434 230.472 67.41L239.304 64.029Z" fill="white"/>
</svg>
