<svg width="250" height="56" viewBox="0 0 250 56" fill="none" xmlns="http://www.w3.org/2000/svg">
<path d="M53.7163 42.066C54.2189 42.066 54.6056 42.298 54.8763 42.762C55.1856 43.226 55.3403 43.864 55.3403 44.676C55.3403 46.184 54.9729 47.3827 54.2383 48.272C52.3823 50.5147 50.5069 52.2547 48.6123 53.492C46.7176 54.6907 44.4749 55.29 41.8843 55.29C39.3709 55.29 37.2249 54.6133 35.4463 53.26C33.7063 51.9067 32.0436 49.5867 30.4583 46.3C29.1823 43.6707 28.1769 41.7373 27.4423 40.5C26.7076 39.224 25.9729 38.3153 25.2383 37.774C24.5423 37.2327 23.6723 36.904 22.6283 36.788C22.4736 37.6 22.0289 40.152 21.2943 44.444C20.9849 46.3773 20.7916 47.5567 20.7143 47.982C20.3276 50.3407 19.5543 52.158 18.3943 53.434C17.2343 54.6713 15.4749 55.29 13.1163 55.29C10.5256 55.29 8.22497 54.536 6.2143 53.028C4.2423 51.4813 2.71497 49.3547 1.6323 46.648C0.549634 43.9027 0.00830078 40.79 0.00830078 37.31C0.00830078 30.814 1.12963 25.2073 3.3723 20.49C5.65363 15.7727 8.8243 12.1767 12.8843 9.70198C16.9829 7.18865 21.7003 5.93198 27.0363 5.93198C30.7483 5.93198 33.8609 6.49265 36.3743 7.61398C38.8876 8.73531 40.7436 10.282 41.9423 12.254C43.1796 14.226 43.7983 16.4493 43.7983 18.924C43.7983 21.0893 43.2763 23.216 42.2323 25.304C41.2269 27.3533 39.6996 29.1707 37.6503 30.756C35.6009 32.3413 33.1069 33.5207 30.1683 34.294C32.0243 34.7967 33.4549 35.6087 34.4603 36.73C35.4656 37.8513 36.4709 39.4947 37.4763 41.66C38.5589 43.98 39.6223 45.6813 40.6663 46.764C41.7489 47.8467 42.9863 48.388 44.3783 48.388C45.6156 48.388 46.7949 47.982 47.9163 47.17C49.0376 46.3193 50.4489 44.8887 52.1503 42.878C52.6143 42.3367 53.1363 42.066 53.7163 42.066ZM14.6243 36.73C13.3096 36.73 12.4009 36.4207 11.8983 35.802C11.4343 35.1833 11.2023 34.4873 11.2023 33.714C11.2023 32.786 11.4923 32.0513 12.0723 31.51C12.6909 30.9687 13.3869 30.698 14.1603 30.698H15.6103C16.2289 26.9087 16.8089 23.6413 17.3503 20.896C17.8529 18.3827 19.4769 17.126 22.2223 17.126C24.4263 17.126 25.5283 18.112 25.5283 20.084C25.5283 20.5093 25.5089 20.838 25.4703 21.07L23.7303 30.698C25.8183 30.582 27.7129 30.0793 29.4143 29.19C31.1543 28.3007 32.5269 27.0633 33.5323 25.478C34.5763 23.8927 35.0983 22.0947 35.0983 20.084C35.0983 17.648 34.2669 15.734 32.6043 14.342C30.9416 12.95 28.5056 12.254 25.2963 12.254C21.5069 12.254 18.1816 13.2013 15.3203 15.096C12.4976 16.952 10.2936 19.736 8.7083 23.448C7.12297 27.1213 6.3303 31.6067 6.3303 36.904C6.3303 39.3787 6.58163 41.5053 7.0843 43.284C7.58697 45.0627 8.20563 46.3967 8.9403 47.286C9.67497 48.1753 10.3709 48.62 11.0283 48.62C11.5309 48.62 11.9369 48.3687 12.2463 47.866C12.5943 47.3633 12.8649 46.5513 13.0583 45.43L14.6243 36.73ZM56.6367 55.29C54.2393 55.29 52.3253 54.42 50.8947 52.68C49.464 50.94 48.7487 48.6587 48.7487 45.836C48.7487 42.7427 49.464 39.8233 50.8947 37.078C52.3253 34.294 54.22 32.0707 56.5787 30.408C58.976 28.7067 61.5087 27.856 64.1767 27.856C65.0273 27.856 65.588 28.03 65.8587 28.378C66.168 28.6873 66.4193 29.2673 66.6127 30.118C67.4247 29.9633 68.2753 29.886 69.1647 29.886C71.0593 29.886 72.0067 30.5627 72.0067 31.916C72.0067 32.728 71.7167 34.6613 71.1367 37.716C70.2473 42.1627 69.8027 45.256 69.8027 46.996C69.8027 47.576 69.938 48.04 70.2087 48.388C70.518 48.736 70.9047 48.91 71.3687 48.91C72.1033 48.91 72.9927 48.446 74.0367 47.518C75.0807 46.5513 76.492 45.0047 78.2707 42.878C78.7347 42.3367 79.2567 42.066 79.8367 42.066C80.3393 42.066 80.726 42.298 80.9967 42.762C81.306 43.226 81.4607 43.864 81.4607 44.676C81.4607 46.2227 81.0933 47.4213 80.3587 48.272C78.7733 50.244 77.0913 51.9067 75.3127 53.26C73.534 54.6133 71.8133 55.29 70.1507 55.29C68.8747 55.29 67.6953 54.8647 66.6127 54.014C65.5687 53.1247 64.776 51.926 64.2347 50.418C62.224 53.666 59.6913 55.29 56.6367 55.29ZM58.7247 49.432C59.5753 49.432 60.3873 48.9293 61.1607 47.924C61.934 46.9187 62.4947 45.5847 62.8427 43.922L64.9887 33.25C63.3647 33.2887 61.8567 33.9073 60.4647 35.106C59.1113 36.266 58.0287 37.8127 57.2167 39.746C56.4047 41.6793 55.9987 43.7287 55.9987 45.894C55.9987 47.0927 56.2307 47.982 56.6947 48.562C57.1973 49.142 57.874 49.432 58.7247 49.432ZM106.023 37.368C106.139 37.3293 106.333 37.31 106.603 37.31C107.183 37.31 107.628 37.5033 107.937 37.89C108.247 38.2767 108.401 38.7987 108.401 39.456C108.401 40.6547 108.169 41.602 107.705 42.298C107.241 42.9553 106.545 43.4387 105.617 43.748C103.839 44.328 101.944 44.618 99.9332 44.618C98.2319 44.618 96.6272 44.386 95.1192 43.922C93.9979 45.7393 92.7605 47.6147 91.4072 49.548C89.8605 51.752 88.5265 53.26 87.4052 54.072C86.2839 54.884 85.0079 55.29 83.5772 55.29C81.9919 55.29 80.7352 54.6713 79.8072 53.434C78.9179 52.1967 78.3572 50.244 78.1252 47.576C77.6612 42.1627 77.4292 37.426 77.4292 33.366V31.336C77.4679 30.06 77.8159 29.1707 78.4732 28.668C79.1305 28.1653 80.1165 27.914 81.4312 27.914C82.4365 27.914 83.1712 28.146 83.6352 28.61C84.1379 29.0353 84.3892 29.77 84.3892 30.814C84.3892 35.2607 84.6599 41.0413 85.2012 48.156C87.5212 44.7147 89.2612 41.9693 90.4212 39.92C89.8412 38.7987 89.5512 37.4647 89.5512 35.918C89.5512 34.6033 89.8412 33.3273 90.4212 32.09C91.0012 30.8527 91.7939 29.8473 92.7992 29.074C93.8045 28.3007 94.9452 27.914 96.2212 27.914C97.3425 27.914 98.2512 28.32 98.9472 29.132C99.6432 29.9053 99.9912 31.046 99.9912 32.554C99.9912 34.294 99.5272 36.2853 98.5992 38.528C100.069 38.4507 102.021 38.1607 104.457 37.658L106.023 37.368ZM110.502 55.29C108.105 55.29 106.191 54.42 104.76 52.68C103.329 50.94 102.614 48.6587 102.614 45.836C102.614 42.7427 103.329 39.8233 104.76 37.078C106.191 34.294 108.085 32.0707 110.444 30.408C112.841 28.7067 115.374 27.856 118.042 27.856C118.893 27.856 119.453 28.03 119.724 28.378C120.033 28.6873 120.285 29.2673 120.478 30.118C121.29 29.9633 122.141 29.886 123.03 29.886C124.925 29.886 125.872 30.5627 125.872 31.916C125.872 32.728 125.582 34.6613 125.002 37.716C124.113 42.1627 123.668 45.256 123.668 46.996C123.668 47.576 123.803 48.04 124.074 48.388C124.383 48.736 124.77 48.91 125.234 48.91C125.969 48.91 126.858 48.446 127.902 47.518C128.946 46.5513 130.357 45.0047 132.136 42.878C132.6 42.3367 133.122 42.066 133.702 42.066C134.205 42.066 134.591 42.298 134.862 42.762C135.171 43.226 135.326 43.864 135.326 44.676C135.326 46.2227 134.959 47.4213 134.224 48.272C132.639 50.244 130.957 51.9067 129.178 53.26C127.399 54.6133 125.679 55.29 124.016 55.29C122.74 55.29 121.561 54.8647 120.478 54.014C119.434 53.1247 118.641 51.926 118.1 50.418C116.089 53.666 113.557 55.29 110.502 55.29ZM112.59 49.432C113.441 49.432 114.253 48.9293 115.026 47.924C115.799 46.9187 116.36 45.5847 116.708 43.922L118.854 33.25C117.23 33.2887 115.722 33.9073 114.33 35.106C112.977 36.266 111.894 37.8127 111.082 39.746C110.27 41.6793 109.864 43.7287 109.864 45.894C109.864 47.0927 110.096 47.982 110.56 48.562C111.063 49.142 111.739 49.432 112.59 49.432ZM147.374 46.822C147.799 46.4353 148.225 46.242 148.65 46.242C149.114 46.242 149.481 46.5127 149.752 47.054C150.061 47.5567 150.216 48.1753 150.216 48.91C150.216 50.534 149.636 51.8293 148.476 52.796C146.465 54.4587 144.184 55.29 141.632 55.29C137.959 55.29 135.271 53.7627 133.57 50.708C131.869 47.6147 131.018 43.5933 131.018 38.644C131.018 33.9267 131.617 28.552 132.816 22.52C134.053 16.488 135.851 11.3067 138.21 6.97598C140.607 2.64531 143.449 0.47998 146.736 0.47998C148.592 0.47998 150.042 1.34998 151.086 3.08998C152.169 4.79131 152.71 7.24665 152.71 10.456C152.71 15.0573 151.434 20.3933 148.882 26.464C146.369 32.5347 142.927 38.528 138.558 44.444C138.829 46.0293 139.312 47.17 140.008 47.866C140.704 48.562 141.651 48.91 142.85 48.91C143.507 48.91 144.242 48.7167 145.054 48.33C145.905 47.9433 146.678 47.4407 147.374 46.822ZM145.46 6.22198C144.571 6.22198 143.565 7.82665 142.444 11.036C141.323 14.2453 140.337 18.228 139.486 22.984C138.635 27.74 138.171 32.3027 138.094 36.672C140.839 32.148 143.024 27.624 144.648 23.1C146.272 18.5373 147.084 14.3807 147.084 10.63C147.084 7.69131 146.543 6.22198 145.46 6.22198Z" fill="white"/>
<path d="M175.081 54V48.825L180.601 47.376L178.117 38.958H164.593L161.971 47.652L168.043 48.756V54H151.552L150.655 48.618L154.45 47.376L168.112 6.38997H176.668L190.537 47.376L193.711 48.618L193.021 54H175.081ZM166.732 31.713H175.081L171.424 16.188L166.732 31.713ZM207.829 20.121C209.485 20.121 211.049 20.42 212.521 21.018V9.28797H209.002L208.243 4.59597L218.455 3.14697L220.87 5.69997V46.755C220.87 47.767 221.307 48.273 222.181 48.273C222.641 48.273 223.147 48.135 223.699 47.859L225.01 51.447C224.228 52.505 222.94 53.333 221.146 53.931C220.456 54.161 219.697 54.276 218.869 54.276C216.293 54.276 214.476 53.31 213.418 51.378C211.762 53.31 209.324 54.276 206.104 54.276C202.194 54.276 199.043 52.827 196.651 49.929C194.213 46.939 192.994 42.914 192.994 37.854C192.994 31.598 194.673 26.906 198.031 23.778C200.653 21.34 203.919 20.121 207.829 20.121ZM212.521 27.918C211.509 26.998 210.152 26.538 208.45 26.538C205.322 26.538 203.229 28.447 202.171 32.265C201.757 33.737 201.55 35.876 201.55 38.682C201.55 41.442 202.079 43.65 203.137 45.306C204.241 46.916 205.759 47.721 207.691 47.721C208.657 47.721 209.646 47.399 210.658 46.755C211.67 46.111 212.291 45.306 212.521 44.34V27.918ZM233.304 43.029L235.098 47.514C235.512 47.652 236.133 47.721 236.961 47.721C237.789 47.721 238.41 47.675 238.824 47.583C239.238 47.445 239.629 47.238 239.997 46.962C240.779 46.41 241.17 45.697 241.17 44.823C241.17 43.949 240.917 43.282 240.411 42.822C239.951 42.316 239.376 41.902 238.686 41.58C237.996 41.258 237.283 40.982 236.547 40.752C235.811 40.522 235.213 40.292 234.753 40.062C231.533 38.774 229.279 37.302 227.991 35.646C226.703 33.944 226.059 32.265 226.059 30.609C226.059 28.907 226.358 27.458 226.956 26.262C227.554 25.02 228.405 23.962 229.509 23.088C231.855 21.11 234.684 20.121 237.996 20.121C242.412 20.121 245.816 21.616 248.208 24.606C248.852 25.434 249.358 26.216 249.726 26.952L240.963 30.471L239.307 26.952C238.847 26.722 238.295 26.607 237.651 26.607C235.627 26.607 234.615 27.481 234.615 29.229C234.615 29.919 234.983 30.517 235.719 31.023C236.455 31.529 237.375 32.035 238.479 32.541C239.583 33.047 240.779 33.599 242.067 34.197C243.401 34.795 244.62 35.508 245.724 36.336C248.3 38.268 249.588 40.706 249.588 43.65C249.588 46.916 248.346 49.538 245.862 51.516C243.516 53.31 240.664 54.207 237.306 54.207C234.178 54.207 231.395 53.356 228.957 51.654C226.795 50.182 225.3 48.434 224.472 46.41L233.304 43.029Z" fill="white"/>
</svg>
