<svg width="510" height="369" viewBox="0 0 510 369" fill="none" xmlns="http://www.w3.org/2000/svg">
<g clip-path="url(#clip0)">
<path opacity="0.2" d="M71.9892 20.3912C68.2069 20.2837 64.3308 20.3912 60.7832 21.4757C51.1306 24.4301 46.5553 34.0975 48.0429 42.4512C49.5304 50.805 55.6496 58.0836 61.9986 64.7357C68.3477 71.3878 75.227 77.9652 78.7089 85.9169C80.4452 89.8858 81.257 94.3314 79.4926 98.2956C76.7709 104.405 68.5636 107.818 60.6847 108.529C52.8058 109.239 44.8941 107.855 36.9871 107.393C33.6695 107.201 30.2579 107.178 27.1327 108.07C23.7024 109.043 20.8446 111.03 18.2168 113.1C7.94469 121.216 -0.276731 132.3 1.06535 143.926C2.56698 157.122 15.9596 167.552 30.6287 173.147C35.4855 175.017 40.6239 176.504 44.8988 179.15C56.161 186.129 58.6903 199.218 57.5688 210.77C56.4473 222.321 52.6275 233.886 54.7533 245.335C57.2544 258.653 68.3242 270.686 83.2561 276.305C96.5595 281.311 113.209 280.98 125.02 273.916C130.778 270.466 135.133 265.674 138.92 260.719C144.542 253.402 149.188 245.387 152.739 236.878C154.386 232.909 155.935 228.641 159.778 225.883C162.124 224.186 165.165 223.237 168.173 222.499C177.239 220.273 186.789 219.666 195.939 217.684C205.09 215.702 214.273 212.004 219.247 205.398C226.286 196.049 223.001 184.072 223.034 173.077C223.091 147.993 241.387 125.54 248.14 101.086C250.345 93.0973 251.166 84.2574 246.239 77.1284C242.893 72.2901 237.248 68.798 231.317 66.1007C218.267 60.1685 203.433 57.5273 188.844 54.9562C168.567 51.3847 143.945 50.9219 128.23 39.3659C113.171 28.2962 92.538 20.3912 71.9892 20.3912Z" fill="white"/>
<g opacity="0.5">
<path opacity="0.5" d="M12.8295 163.312C11.8252 164.789 10.9993 166.935 12.3133 169.436C14.8942 174.344 21.2761 173.334 24.3779 178.033C25.2067 179.334 25.6687 180.835 25.7153 182.375C25.8326 185.035 25.0067 187.13 24.5797 189.472C24.0212 192.234 24.4564 195.103 25.8092 197.578C27.3318 200.161 29.6296 202.203 32.3788 203.416C34.7814 204.473 37.0714 204.744 39.3707 205.258C42.2232 205.91 45.0015 206.85 47.6625 208.063C48.9273 208.591 50.1169 209.283 51.2008 210.12C52.5228 211.276 53.7225 212.563 54.7812 213.963L64.7623 226.238C66.0306 227.893 67.4439 229.433 68.9857 230.838C70.6678 232.19 72.5159 233.323 74.4854 234.209C78.4694 236.186 82.6364 238.21 86.0949 237.981C89.5533 237.752 91.9559 234.429 90.3182 229.782C88.7696 225.36 84.4055 221.634 82.4253 217.221C79.3047 210.265 83.3919 205.067 80.7782 198.101C78.2723 191.407 71.2475 186.919 66.7614 180.805C63.5423 176.457 61.7497 171.399 58.8497 166.832C54.6263 160.287 48.3383 155.281 42.4256 152.747C37.2256 150.545 31.5315 149.759 25.9265 150.47C23.7866 150.704 21.6797 151.101 20.1593 152.378C18.545 153.733 18.7515 156.267 17.7004 158.067C16.4944 160.138 14.195 161.311 12.8295 163.312Z" fill="white"/>
<path opacity="0.5" d="M19.0942 153.897C19.0942 153.897 69.0609 200.434 89.2109 236.668" stroke="#535461" stroke-width="2" stroke-miterlimit="10"/>
<path opacity="0.5" d="M12.5059 169.721C12.5059 169.721 32.4728 165.855 46.2925 181.361" stroke="#535461" stroke-width="2" stroke-miterlimit="10"/>
<path opacity="0.5" d="M26.6958 198.943C26.6958 198.943 48.751 183.577 56.3811 192.515" stroke="#535461" stroke-width="2" stroke-miterlimit="10"/>
<path opacity="0.5" d="M42.3316 152.635C42.3316 152.635 40.0088 164.396 48.3663 183.61" stroke="#535461" stroke-width="2" stroke-miterlimit="10"/>
<path opacity="0.5" d="M80.7545 198.283C80.7545 198.283 78.8024 205.996 63.1104 200.326" stroke="#535461" stroke-width="2" stroke-miterlimit="10"/>
<path opacity="0.5" d="M64.8232 225.266C64.8232 225.266 74.4008 214.239 70.0461 208.825" stroke="#535461" stroke-width="2" stroke-miterlimit="10"/>
</g>
<path d="M3.43947 109.333C1.09317 112.096 -1.10296 115.92 0.623913 119.692C3.94627 127.097 16.2455 123.474 20.6331 130.369C21.947 132.431 22.1254 134.95 21.8203 137.199C21.2291 141.598 19.0423 145.333 17.5313 149.353C16.0203 153.374 15.2366 158.235 17.3671 162.48C19.4177 166.589 23.7396 169.184 27.9254 170.217C32.1112 171.25 36.3064 171.016 40.4875 171.152C45.4546 171.346 50.3866 172.07 55.1987 173.311C57.3137 173.788 59.3383 174.6 61.1959 175.714C63.331 177.074 65.0579 179.071 66.7472 181.034L81.7635 198.466C83.7578 200.803 85.7944 203.141 88.2674 204.856C91.1205 206.834 94.3678 207.839 97.5634 208.807C104.438 210.901 111.641 213.014 118.211 211.579C124.78 210.143 130.294 203.889 128.652 196.648C127.089 189.752 120.041 184.863 117.666 178.108C113.912 167.463 123.18 157.59 120.398 146.759C117.732 136.372 105.916 131.014 99.3466 122.221C94.654 115.92 92.8052 108.038 88.7038 101.334C82.7818 91.6578 72.4581 85.2487 62.1813 82.8132C51.9045 80.3776 41.5668 81.5136 31.9282 83.9491C27.8456 84.9822 23.7631 86.2865 20.5252 88.8669C17.0855 91.611 16.6913 95.7762 14.1855 99.0859C11.2808 102.933 6.60227 105.593 3.43947 109.333Z" fill="white"/>
<path d="M18.0571 91.7559C18.0571 91.7559 97.6763 154.164 124.466 208.437" stroke="#535461" stroke-width="2" stroke-miterlimit="10"/>
<path d="M0.877441 120.085C0.877441 120.085 39.5303 107.626 60.7267 129.275" stroke="#535461" stroke-width="2" stroke-miterlimit="10"/>
<path d="M18.6157 164.494C18.6157 164.494 64.6547 132.239 76.2923 144.818" stroke="#535461" stroke-width="2" stroke-miterlimit="10"/>
<path d="M62.0642 82.6309C62.0642 82.6309 54.1291 102.915 63.9413 132.398" stroke="#535461" stroke-width="2" stroke-miterlimit="10"/>
<path d="M120.276 147.053C120.276 147.053 114.265 160.484 86.5361 155.786" stroke="#535461" stroke-width="2" stroke-miterlimit="10"/>
<path d="M82.167 196.797C82.167 196.797 103.504 175.536 96.9815 167.813" stroke="#535461" stroke-width="2" stroke-miterlimit="10"/>
<path opacity="0.1" d="M289.988 360.74C410.5 360.74 508.194 334.678 508.194 302.53C508.194 270.382 410.5 244.32 289.988 244.32C169.477 244.32 71.7827 270.382 71.7827 302.53C71.7827 334.678 169.477 360.74 289.988 360.74Z" fill="white"/>
<path d="M459.944 0.191406C459.944 0.191406 443.13 16.941 452.624 41.7965C462.117 66.6521 436.35 107.986 436.35 107.986C436.35 107.986 436.626 107.944 437.138 107.855C471.671 101.778 488.832 62.4355 469.629 33.2044C462.492 22.3403 456.631 9.59697 459.944 0.191406Z" fill="white"/>
<path d="M459.944 0.191406C459.944 0.191406 450.451 20.7228 459.944 37.4724C469.437 54.222 461.572 101.231 436.35 107.986" stroke="#535461" stroke-width="2" stroke-miterlimit="10"/>
<path d="M489.892 67.9426C489.892 67.9426 470.704 64.8993 468.959 82.0275C467.213 99.1558 432.065 101.531 432.065 101.531L432.722 101.965C461.741 120.94 489.503 114.054 485.279 88.876C483.745 79.4892 483.872 70.0649 489.892 67.9426Z" fill="white"/>
<path opacity="0.2" d="M489.892 67.9426C489.892 67.9426 470.704 64.8993 468.959 82.0275C467.213 99.1558 432.065 101.531 432.065 101.531L432.722 101.965C461.741 120.94 489.503 114.054 485.279 88.876C483.745 79.4892 483.872 70.0649 489.892 67.9426Z" fill="#F5F5F5"/>
<path d="M489.892 67.9429C489.892 67.9429 474.998 71.2152 476.223 84.6878C477.447 98.1603 454.107 114.349 432.065 101.517" stroke="#535461" stroke-width="2" stroke-miterlimit="10"/>
<path d="M115.766 130.799C115.766 130.799 109.544 109.763 116.935 94.2707C120.075 87.7949 121.022 80.479 119.633 73.4214C118.948 70.0768 117.957 66.8017 116.672 63.6372" stroke="#535461" stroke-width="2" stroke-miterlimit="10"/>
<path d="M121.261 53.8432C121.261 56.4236 116.569 63.8985 116.569 63.8985C116.569 63.8985 111.876 56.419 111.876 53.8432C111.876 52.6034 112.37 51.4143 113.25 50.5377C114.13 49.661 115.324 49.1685 116.569 49.1685C117.813 49.1685 119.007 49.661 119.887 50.5377C120.767 51.4143 121.261 52.6034 121.261 53.8432Z" fill="white"/>
<path d="M129.014 68.1294C127.606 70.2938 119.591 74.0336 119.591 74.0336C119.591 74.0336 119.736 65.217 121.144 63.0526C121.464 62.5072 121.892 62.0322 122.402 61.6561C122.911 61.28 123.492 61.0108 124.109 60.8646C124.726 60.7185 125.367 60.6984 125.992 60.8057C126.617 60.9129 127.213 61.1453 127.746 61.4887C128.278 61.8321 128.735 62.2795 129.089 62.8037C129.443 63.328 129.686 63.9183 129.805 64.539C129.923 65.1596 129.914 65.7978 129.778 66.4149C129.642 67.032 129.382 67.6152 129.014 68.1294Z" fill="white"/>
<path d="M128.675 92.541C126.362 93.7003 117.549 92.9009 117.549 92.9009C117.549 92.9009 122.143 85.3653 124.452 84.2059C125.005 83.898 125.614 83.7046 126.244 83.6374C126.873 83.5703 127.51 83.6307 128.115 83.8151C128.721 83.9996 129.283 84.3042 129.767 84.7106C130.251 85.117 130.648 85.6169 130.933 86.18C131.218 86.7432 131.386 87.358 131.426 87.9875C131.467 88.6169 131.379 89.248 131.168 89.8428C130.957 90.4375 130.627 90.9836 130.199 91.4481C129.771 91.9126 129.252 92.2859 128.675 92.5456V92.541Z" fill="white"/>
<path d="M124.245 110.95C122.162 112.483 113.34 113.175 113.34 113.175C113.34 113.175 116.587 104.976 118.671 103.443C119.163 103.042 119.731 102.745 120.342 102.57C120.952 102.394 121.592 102.344 122.223 102.423C122.853 102.501 123.461 102.706 124.01 103.026C124.558 103.345 125.036 103.772 125.414 104.281C125.792 104.79 126.062 105.37 126.208 105.986C126.354 106.602 126.373 107.242 126.264 107.865C126.155 108.489 125.919 109.084 125.572 109.614C125.225 110.144 124.774 110.599 124.245 110.95Z" fill="white"/>
<path d="M109.75 74.534C111.627 76.3291 120.257 78.1943 120.257 78.1943C120.257 78.1943 118.141 69.6349 116.282 67.8398C115.848 67.3783 115.325 67.0094 114.744 66.7553C114.162 66.5012 113.535 66.3672 112.9 66.3615C112.266 66.3558 111.636 66.4785 111.05 66.7221C110.465 66.9657 109.934 67.3252 109.492 67.7788C109.05 68.2325 108.705 68.7708 108.477 69.3612C108.25 69.9516 108.145 70.5819 108.169 71.2138C108.193 71.8458 108.346 72.4663 108.618 73.0378C108.889 73.6093 109.275 74.1199 109.75 74.5387V74.534Z" fill="white"/>
<path d="M104.837 96.1315C107.15 97.2909 115.963 96.4915 115.963 96.4915C115.963 96.4915 111.369 88.9558 109.06 87.7965C107.958 87.3003 106.706 87.2474 105.565 87.6488C104.424 88.0503 103.483 88.875 102.938 89.951C102.394 91.027 102.287 92.271 102.641 93.4235C102.994 94.5759 103.781 95.5478 104.837 96.1362V96.1315Z" fill="white"/>
<path d="M102.96 117.775C105.043 119.308 113.866 120 113.866 120C113.866 120 110.618 111.801 108.535 110.267C107.532 109.601 106.311 109.345 105.124 109.551C103.936 109.757 102.875 110.411 102.158 111.376C101.441 112.341 101.125 113.544 101.274 114.735C101.423 115.927 102.027 117.015 102.96 117.775Z" fill="white"/>
<path d="M503.238 253.137H463.309C464.233 251.298 464.715 249.27 464.716 247.214V66.0775C464.714 62.5469 463.304 59.1617 460.797 56.6661C458.29 54.1704 454.891 52.7686 451.347 52.7686H142.26C138.715 52.7686 135.314 54.1717 132.807 56.6694C130.3 59.1671 128.891 62.5546 128.891 66.0869V247.214C128.893 249.27 129.375 251.298 130.299 253.137H88.9573C88.0202 253.137 87.1214 253.508 86.4588 254.168C85.7961 254.828 85.4238 255.723 85.4238 256.657V259.495C85.4238 264.719 87.5072 269.73 91.2157 273.424C94.9241 277.118 99.9538 279.194 105.198 279.194H487.025C492.27 279.194 497.299 277.118 501.008 273.424C504.716 269.73 506.8 264.719 506.8 259.495V256.657C506.8 256.192 506.707 255.732 506.528 255.303C506.349 254.875 506.086 254.485 505.755 254.158C505.424 253.831 505.031 253.572 504.599 253.397C504.167 253.222 503.704 253.133 503.238 253.137ZM257.21 264.403L253.785 260.528H338.772L334.98 264.403H257.21Z" fill="url(#paint0_linear)"/>
<path d="M449.982 55.3252H143.593C137.565 55.3252 132.678 60.1934 132.678 66.1986V247.517C132.678 253.523 137.565 258.391 143.593 258.391H449.982C456.01 258.391 460.897 253.523 460.897 247.517V66.1986C460.897 60.1934 456.01 55.3252 449.982 55.3252Z" fill="#535461"/>
<path d="M453.299 84.9258H139.59V250.818H453.299V84.9258Z" fill="#F1F1F4"/>
<path d="M296.445 73.2202C297.972 73.2202 299.209 71.9875 299.209 70.4668C299.209 68.9461 297.972 67.7134 296.445 67.7134C294.919 67.7134 293.681 68.9461 293.681 70.4668C293.681 71.9875 294.919 73.2202 296.445 73.2202Z" fill="white"/>
<path d="M344.882 251.159L334.089 262.173H258.069L248.327 251.159H93.6359C92.7199 251.159 91.8414 251.522 91.1937 252.167C90.546 252.812 90.1821 253.687 90.1821 254.6V257.377C90.1821 259.907 90.6827 262.412 91.6553 264.749C92.6279 267.086 94.0534 269.209 95.8503 270.997C97.6472 272.785 99.7802 274.202 102.127 275.168C104.475 276.134 106.99 276.63 109.53 276.627H482.684C487.809 276.627 492.725 274.599 496.349 270.989C499.973 267.379 502.008 262.482 502.008 257.377V254.6C502.008 253.687 501.645 252.812 500.997 252.167C500.349 251.522 499.471 251.159 498.555 251.159H344.882Z" fill="#535461"/>
<path d="M244.517 97.5664H158.75V161.956H244.517V97.5664Z" fill="white"/>
<path opacity="0.2" d="M195.728 103.139H167.141V119.234H195.728V103.139Z" fill="white"/>
<path d="M236.126 103.139H202.565V106.855H236.126V103.139Z" fill="#E6E8EC"/>
<path d="M226.183 109.328H202.565V113.044H226.183V109.328Z" fill="#E6E8EC"/>
<path d="M236.126 115.518H202.565V119.234H236.126V115.518Z" fill="#E6E8EC"/>
<path d="M236.126 121.711H167.141V125.428H236.126V121.711Z" fill="#E6E8EC"/>
<path d="M236.126 127.901H167.141V131.617H236.126V127.901Z" fill="#E6E8EC"/>
<path d="M236.126 134.095H167.141V137.811H236.126V134.095Z" fill="#E6E8EC"/>
<path d="M230.533 140.284H167.141V144.001H230.533V140.284Z" fill="#E6E8EC"/>
<path d="M236.126 146.473H167.141V150.19H236.126V146.473Z" fill="#E6E8EC"/>
<path d="M236.126 152.667H167.141V156.384H236.126V152.667Z" fill="#E6E8EC"/>
<path d="M338.983 97.5664H253.217V161.956H338.983V97.5664Z" fill="white"/>
<path opacity="0.2" d="M290.19 103.139H261.603V119.234H290.19V103.139Z" fill="white"/>
<path d="M330.593 103.139H297.031V106.855H330.593V103.139Z" fill="#E6E8EC"/>
<path d="M320.649 109.328H297.031V113.044H320.649V109.328Z" fill="#E6E8EC"/>
<path d="M330.593 115.518H297.031V119.234H330.593V115.518Z" fill="#E6E8EC"/>
<path d="M330.588 121.711H261.603V125.428H330.588V121.711Z" fill="#E6E8EC"/>
<path d="M330.588 127.901H261.603V131.617H330.588V127.901Z" fill="#E6E8EC"/>
<path d="M330.588 134.095H261.603V137.811H330.588V134.095Z" fill="#E6E8EC"/>
<path d="M324.995 140.284H261.603V144.001H324.995V140.284Z" fill="#E6E8EC"/>
<path d="M330.588 146.473H261.603V150.19H330.588V146.473Z" fill="#E6E8EC"/>
<path d="M330.588 152.667H261.603V156.384H330.588V152.667Z" fill="#E6E8EC"/>
<path d="M433.445 97.5664H347.679V161.956H433.445V97.5664Z" fill="white"/>
<path opacity="0.2" d="M384.656 103.139H356.069V119.234H384.656V103.139Z" fill="white"/>
<path d="M425.055 103.139H391.493V106.855H425.055V103.139Z" fill="#E6E8EC"/>
<path d="M415.111 109.328H391.493V113.044H415.111V109.328Z" fill="#E6E8EC"/>
<path d="M425.055 115.518H391.493V119.234H425.055V115.518Z" fill="#E6E8EC"/>
<path d="M425.055 121.711H356.069V125.428H425.055V121.711Z" fill="#E6E8EC"/>
<path d="M425.055 127.901H356.069V131.617H425.055V127.901Z" fill="#E6E8EC"/>
<path d="M425.055 134.095H356.069V137.811H425.055V134.095Z" fill="#E6E8EC"/>
<path d="M419.461 140.284H356.069V144.001H419.461V140.284Z" fill="#E6E8EC"/>
<path d="M425.055 146.473H356.069V150.19H425.055V146.473Z" fill="#E6E8EC"/>
<path d="M425.055 152.667H356.069V156.384H425.055V152.667Z" fill="#E6E8EC"/>
<path d="M244.517 170.001H158.75V234.391H244.517V170.001Z" fill="white"/>
<path opacity="0.2" d="M195.728 175.574H167.141V191.669H195.728V175.574Z" fill="white"/>
<path d="M236.126 175.574H202.565V179.29H236.126V175.574Z" fill="#E6E8EC"/>
<path d="M226.183 181.768H202.565V185.484H226.183V181.768Z" fill="#E6E8EC"/>
<path d="M236.126 187.957H202.565V191.673H236.126V187.957Z" fill="#E6E8EC"/>
<path d="M236.126 194.146H167.141V197.862H236.126V194.146Z" fill="#E6E8EC"/>
<path d="M236.126 200.34H167.141V204.057H236.126V200.34Z" fill="#E6E8EC"/>
<path d="M236.126 206.53H167.141V210.246H236.126V206.53Z" fill="#E6E8EC"/>
<path d="M230.533 212.724H167.141V216.44H230.533V212.724Z" fill="#E6E8EC"/>
<path d="M236.126 218.913H167.141V222.629H236.126V218.913Z" fill="#E6E8EC"/>
<path d="M236.126 225.103H167.141V228.819H236.126V225.103Z" fill="#E6E8EC"/>
<path d="M338.983 170.001H253.217V234.391H338.983V170.001Z" fill="white"/>
<path opacity="0.2" d="M290.19 175.574H261.603V191.669H290.19V175.574Z" fill="white"/>
<path d="M330.593 175.574H297.031V179.29H330.593V175.574Z" fill="#E6E8EC"/>
<path d="M320.649 181.768H297.031V185.484H320.649V181.768Z" fill="#E6E8EC"/>
<path d="M330.593 187.957H297.031V191.673H330.593V187.957Z" fill="#E6E8EC"/>
<path d="M330.588 194.146H261.603V197.862H330.588V194.146Z" fill="#E6E8EC"/>
<path d="M330.588 200.34H261.603V204.057H330.588V200.34Z" fill="#E6E8EC"/>
<path d="M330.588 206.53H261.603V210.246H330.588V206.53Z" fill="#E6E8EC"/>
<path d="M324.995 212.724H261.603V216.44H324.995V212.724Z" fill="#E6E8EC"/>
<path d="M330.588 218.913H261.603V222.629H330.588V218.913Z" fill="#E6E8EC"/>
<path d="M330.588 225.103H261.603V228.819H330.588V225.103Z" fill="#E6E8EC"/>
<path opacity="0.1" d="M433.445 170.001H347.679V234.391H433.445V170.001Z" fill="black"/>
<path d="M207.445 119.233H75.1141C73.5208 119.23 71.9425 119.54 70.4695 120.145C68.9965 120.751 67.6578 121.639 66.5298 122.76C65.4019 123.881 64.5068 125.213 63.896 126.679C63.2851 128.145 62.9703 129.716 62.9697 131.304V313.964C62.9716 315.55 63.2871 317.12 63.8982 318.585C64.5093 320.05 65.4041 321.38 66.5315 322.5C67.6588 323.62 68.9966 324.508 70.4685 325.112C71.9403 325.717 73.5173 326.027 75.1095 326.025H207.44C209.033 326.027 210.61 325.717 212.081 325.112C213.553 324.508 214.891 323.62 216.018 322.5C217.146 321.38 218.041 320.05 218.652 318.585C219.263 317.12 219.578 315.55 219.58 313.964V131.304C219.58 129.717 219.265 128.146 218.655 126.681C218.045 125.216 217.15 123.884 216.023 122.763C214.896 121.643 213.559 120.754 212.087 120.148C210.615 119.542 209.038 119.232 207.445 119.233Z" fill="url(#paint1_linear)"/>
<path d="M208.337 121.711H74.2226C69.0393 121.711 64.8374 125.897 64.8374 131.061V314.815C64.8374 319.979 69.0393 324.165 74.2226 324.165H208.337C213.52 324.165 217.722 319.979 217.722 314.815V131.061C217.722 125.897 213.52 121.711 208.337 121.711Z" fill="#535461"/>
<path d="M209.951 140.864H72.604V305.017H209.951V140.864Z" fill="#F1F1F4"/>
<path d="M140.656 132.856C141.685 132.856 142.519 132.025 142.519 131C142.519 129.975 141.685 129.145 140.656 129.145C139.627 129.145 138.793 129.975 138.793 131C138.793 132.025 139.627 132.856 140.656 132.856Z" fill="white"/>
<path d="M140.656 319.831C143.745 319.831 146.249 317.336 146.249 314.259C146.249 311.181 143.745 308.687 140.656 308.687C137.566 308.687 135.062 311.181 135.062 314.259C135.062 317.336 137.566 319.831 140.656 319.831Z" fill="white"/>
<path d="M117.713 157.637H78.5396V187.05H117.713V157.637Z" fill="white"/>
<path opacity="0.2" d="M95.433 160.184H82.3735V167.537H95.433V160.184Z" fill="white"/>
<path d="M113.884 160.184H98.5537V161.881H113.884V160.184Z" fill="#E6E8EC"/>
<path d="M109.342 163.013H98.5537V164.71H109.342V163.013Z" fill="#E6E8EC"/>
<path d="M113.884 165.841H98.5537V167.538H113.884V165.841Z" fill="#E6E8EC"/>
<path d="M113.884 168.669H82.3735V170.366H113.884V168.669Z" fill="#E6E8EC"/>
<path d="M113.884 171.497H82.3735V173.194H113.884V171.497Z" fill="#E6E8EC"/>
<path d="M113.884 174.325H82.3735V176.022H113.884V174.325Z" fill="#E6E8EC"/>
<path d="M111.332 177.154H82.3735V178.851H111.332V177.154Z" fill="#E6E8EC"/>
<path d="M113.884 179.982H82.3735V181.679H113.884V179.982Z" fill="#E6E8EC"/>
<path d="M113.884 182.81H82.3735V184.507H113.884V182.81Z" fill="#E6E8EC"/>
<path d="M160.867 157.637H121.693V187.05H160.867V157.637Z" fill="white"/>
<path opacity="0.2" d="M138.581 160.184H125.522V167.537H138.581V160.184Z" fill="white"/>
<path d="M157.038 160.184H141.707V161.881H157.038V160.184Z" fill="#E6E8EC"/>
<path d="M152.495 163.013H141.707V164.71H152.495V163.013Z" fill="#E6E8EC"/>
<path d="M157.038 165.841H141.707V167.538H157.038V165.841Z" fill="#E6E8EC"/>
<path d="M157.033 168.669H125.522V170.366H157.033V168.669Z" fill="#E6E8EC"/>
<path d="M157.033 171.497H125.522V173.194H157.033V171.497Z" fill="#E6E8EC"/>
<path d="M157.033 174.325H125.522V176.022H157.033V174.325Z" fill="#E6E8EC"/>
<path d="M154.48 177.154H125.522V178.851H154.48V177.154Z" fill="#E6E8EC"/>
<path d="M157.033 179.982H125.522V181.679H157.033V179.982Z" fill="#E6E8EC"/>
<path d="M157.033 182.81H125.522V184.507H157.033V182.81Z" fill="#E6E8EC"/>
<path d="M204.015 157.637H164.841V187.05H204.015V157.637Z" fill="white"/>
<path opacity="0.2" d="M181.735 160.184H168.675V167.537H181.735V160.184Z" fill="white"/>
<path d="M200.186 160.184H184.855V161.881H200.186V160.184Z" fill="#E6E8EC"/>
<path d="M195.644 163.013H184.855V164.71H195.644V163.013Z" fill="#E6E8EC"/>
<path d="M200.186 165.841H184.855V167.538H200.186V165.841Z" fill="#E6E8EC"/>
<path d="M200.186 168.669H168.675V170.366H200.186V168.669Z" fill="#E6E8EC"/>
<path d="M200.186 171.497H168.675V173.194H200.186V171.497Z" fill="#E6E8EC"/>
<path d="M200.186 174.325H168.675V176.022H200.186V174.325Z" fill="#E6E8EC"/>
<path d="M197.633 177.154H168.675V178.851H197.633V177.154Z" fill="#E6E8EC"/>
<path d="M200.186 179.982H168.675V181.679H200.186V179.982Z" fill="#E6E8EC"/>
<path d="M200.186 182.81H168.675V184.507H200.186V182.81Z" fill="#E6E8EC"/>
<path d="M117.713 190.724H78.5396V220.138H117.713V190.724Z" fill="white"/>
<path opacity="0.2" d="M95.433 193.272H82.3735V200.625H95.433V193.272Z" fill="white"/>
<path d="M113.884 193.272H98.5537V194.969H113.884V193.272Z" fill="#E6E8EC"/>
<path d="M109.342 196.1H98.5537V197.797H109.342V196.1Z" fill="#E6E8EC"/>
<path d="M113.884 198.929H98.5537V200.626H113.884V198.929Z" fill="#E6E8EC"/>
<path d="M113.884 201.757H82.3735V203.454H113.884V201.757Z" fill="#E6E8EC"/>
<path d="M113.884 204.585H82.3735V206.282H113.884V204.585Z" fill="#E6E8EC"/>
<path d="M113.884 207.413H82.3735V209.11H113.884V207.413Z" fill="#E6E8EC"/>
<path d="M111.332 210.241H82.3735V211.938H111.332V210.241Z" fill="#E6E8EC"/>
<path d="M113.884 213.07H82.3735V214.767H113.884V213.07Z" fill="#E6E8EC"/>
<path d="M113.884 215.898H82.3735V217.595H113.884V215.898Z" fill="#E6E8EC"/>
<path d="M160.867 190.724H121.693V220.138H160.867V190.724Z" fill="white"/>
<path opacity="0.2" d="M138.581 193.272H125.522V200.625H138.581V193.272Z" fill="white"/>
<path d="M157.038 193.272H141.707V194.969H157.038V193.272Z" fill="#E6E8EC"/>
<path d="M152.495 196.1H141.707V197.797H152.495V196.1Z" fill="#E6E8EC"/>
<path d="M157.038 198.929H141.707V200.626H157.038V198.929Z" fill="#E6E8EC"/>
<path d="M157.033 201.757H125.522V203.454H157.033V201.757Z" fill="#E6E8EC"/>
<path d="M157.033 204.585H125.522V206.282H157.033V204.585Z" fill="#E6E8EC"/>
<path d="M157.033 207.413H125.522V209.11H157.033V207.413Z" fill="#E6E8EC"/>
<path d="M154.48 210.241H125.522V211.938H154.48V210.241Z" fill="#E6E8EC"/>
<path d="M157.033 213.07H125.522V214.767H157.033V213.07Z" fill="#E6E8EC"/>
<path d="M157.033 215.898H125.522V217.595H157.033V215.898Z" fill="#E6E8EC"/>
<path d="M204.015 190.724H164.841V220.138H204.015V190.724Z" fill="white"/>
<path opacity="0.2" d="M181.735 193.272H168.675V200.625H181.735V193.272Z" fill="white"/>
<path d="M200.186 193.272H184.855V194.969H200.186V193.272Z" fill="#E6E8EC"/>
<path d="M195.644 196.1H184.855V197.797H195.644V196.1Z" fill="#E6E8EC"/>
<path d="M200.186 198.929H184.855V200.626H200.186V198.929Z" fill="#E6E8EC"/>
<path d="M200.186 201.757H168.675V203.454H200.186V201.757Z" fill="#E6E8EC"/>
<path d="M200.186 204.585H168.675V206.282H200.186V204.585Z" fill="#E6E8EC"/>
<path d="M200.186 207.413H168.675V209.11H200.186V207.413Z" fill="#E6E8EC"/>
<path d="M197.633 210.241H168.675V211.938H197.633V210.241Z" fill="#E6E8EC"/>
<path d="M200.186 213.07H168.675V214.767H200.186V213.07Z" fill="#E6E8EC"/>
<path d="M200.186 215.898H168.675V217.595H200.186V215.898Z" fill="#E6E8EC"/>
<path d="M117.713 225.121H78.5396V254.535H117.713V225.121Z" fill="white"/>
<path opacity="0.2" d="M95.433 227.669H82.3735V235.022H95.433V227.669Z" fill="white"/>
<path d="M113.884 227.669H98.5537V229.366H113.884V227.669Z" fill="#E6E8EC"/>
<path d="M109.342 230.497H98.5537V232.194H109.342V230.497Z" fill="#E6E8EC"/>
<path d="M113.884 233.325H98.5537V235.022H113.884V233.325Z" fill="#E6E8EC"/>
<path d="M113.884 236.153H82.3735V237.85H113.884V236.153Z" fill="#E6E8EC"/>
<path d="M113.884 238.981H82.3735V240.678H113.884V238.981Z" fill="#E6E8EC"/>
<path d="M113.884 241.81H82.3735V243.507H113.884V241.81Z" fill="#E6E8EC"/>
<path d="M111.332 244.638H82.3735V246.335H111.332V244.638Z" fill="#E6E8EC"/>
<path d="M113.884 247.466H82.3735V249.163H113.884V247.466Z" fill="#E6E8EC"/>
<path d="M113.884 250.294H82.3735V251.991H113.884V250.294Z" fill="#E6E8EC"/>
<path d="M160.867 225.121H121.693V254.535H160.867V225.121Z" fill="white"/>
<path opacity="0.2" d="M138.581 227.669H125.522V235.022H138.581V227.669Z" fill="white"/>
<path d="M157.038 227.669H141.707V229.366H157.038V227.669Z" fill="#E6E8EC"/>
<path d="M152.495 230.497H141.707V232.194H152.495V230.497Z" fill="#E6E8EC"/>
<path d="M157.038 233.325H141.707V235.022H157.038V233.325Z" fill="#E6E8EC"/>
<path d="M157.033 236.153H125.522V237.85H157.033V236.153Z" fill="#E6E8EC"/>
<path d="M157.033 238.981H125.522V240.678H157.033V238.981Z" fill="#E6E8EC"/>
<path d="M157.033 241.81H125.522V243.507H157.033V241.81Z" fill="#E6E8EC"/>
<path d="M154.48 244.638H125.522V246.335H154.48V244.638Z" fill="#E6E8EC"/>
<path d="M157.033 247.466H125.522V249.163H157.033V247.466Z" fill="#E6E8EC"/>
<path d="M157.033 250.294H125.522V251.991H157.033V250.294Z" fill="#E6E8EC"/>
<path d="M204.015 225.121H164.841V254.535H204.015V225.121Z" fill="white"/>
<path opacity="0.2" d="M181.735 227.669H168.675V235.022H181.735V227.669Z" fill="white"/>
<path d="M200.186 227.669H184.855V229.366H200.186V227.669Z" fill="#E6E8EC"/>
<path d="M195.644 230.497H184.855V232.194H195.644V230.497Z" fill="#E6E8EC"/>
<path d="M200.186 233.325H184.855V235.022H200.186V233.325Z" fill="#E6E8EC"/>
<path d="M200.186 236.153H168.675V237.85H200.186V236.153Z" fill="#E6E8EC"/>
<path d="M200.186 238.981H168.675V240.678H200.186V238.981Z" fill="#E6E8EC"/>
<path d="M200.186 241.81H168.675V243.507H200.186V241.81Z" fill="#E6E8EC"/>
<path d="M197.633 244.638H168.675V246.335H197.633V244.638Z" fill="#E6E8EC"/>
<path d="M200.186 247.466H168.675V249.163H200.186V247.466Z" fill="#E6E8EC"/>
<path d="M200.186 250.294H168.675V251.991H200.186V250.294Z" fill="#E6E8EC"/>
<path d="M117.713 258.208H78.5396V287.622H117.713V258.208Z" fill="white"/>
<path opacity="0.2" d="M95.433 260.757H82.3735V268.11H95.433V260.757Z" fill="white"/>
<path d="M113.884 260.757H98.5537V262.454H113.884V260.757Z" fill="#E6E8EC"/>
<path d="M109.342 263.585H98.5537V265.282H109.342V263.585Z" fill="#E6E8EC"/>
<path d="M113.884 266.413H98.5537V268.11H113.884V266.413Z" fill="#E6E8EC"/>
<path d="M113.884 269.241H82.3735V270.938H113.884V269.241Z" fill="#E6E8EC"/>
<path d="M113.884 272.069H82.3735V273.766H113.884V272.069Z" fill="#E6E8EC"/>
<path d="M113.884 274.898H82.3735V276.595H113.884V274.898Z" fill="#E6E8EC"/>
<path d="M111.332 277.726H82.3735V279.423H111.332V277.726Z" fill="#E6E8EC"/>
<path d="M113.884 280.554H82.3735V282.251H113.884V280.554Z" fill="#E6E8EC"/>
<path d="M113.884 283.382H82.3735V285.079H113.884V283.382Z" fill="#E6E8EC"/>
<path d="M160.867 258.208H121.693V287.622H160.867V258.208Z" fill="white"/>
<path opacity="0.2" d="M138.581 260.757H125.522V268.11H138.581V260.757Z" fill="white"/>
<path d="M157.038 260.757H141.707V262.454H157.038V260.757Z" fill="#E6E8EC"/>
<path d="M152.495 263.585H141.707V265.282H152.495V263.585Z" fill="#E6E8EC"/>
<path d="M157.038 266.413H141.707V268.11H157.038V266.413Z" fill="#E6E8EC"/>
<path d="M157.033 269.241H125.522V270.938H157.033V269.241Z" fill="#E6E8EC"/>
<path d="M157.033 272.069H125.522V273.766H157.033V272.069Z" fill="#E6E8EC"/>
<path d="M157.033 274.898H125.522V276.595H157.033V274.898Z" fill="#E6E8EC"/>
<path d="M154.48 277.726H125.522V279.423H154.48V277.726Z" fill="#E6E8EC"/>
<path d="M157.033 280.554H125.522V282.251H157.033V280.554Z" fill="#E6E8EC"/>
<path d="M157.033 283.382H125.522V285.079H157.033V283.382Z" fill="#E6E8EC"/>
<path opacity="0.1" d="M204.015 258.208H164.841V287.622H204.015V258.208Z" fill="black"/>
<path d="M106.578 181.146H38.6294C37.7469 181.144 36.8727 181.315 36.0568 181.65C35.2408 181.985 34.4989 182.476 33.8736 183.097C33.2483 183.717 32.7518 184.454 32.4124 185.266C32.073 186.077 31.8974 186.947 31.8955 187.826V336.057C31.8974 336.936 32.073 337.807 32.4124 338.618C32.7518 339.429 33.2483 340.166 33.8736 340.787C34.4989 341.407 35.2408 341.899 36.0568 342.233C36.8727 342.568 37.7469 342.739 38.6294 342.737H106.578C107.461 342.739 108.335 342.568 109.151 342.233C109.967 341.899 110.709 341.407 111.334 340.787C111.959 340.166 112.456 339.429 112.795 338.618C113.134 337.807 113.31 336.936 113.312 336.057V187.831C113.311 186.951 113.136 186.081 112.796 185.269C112.457 184.457 111.961 183.719 111.335 183.098C110.71 182.478 109.968 181.986 109.152 181.651C108.335 181.316 107.461 181.144 106.578 181.146Z" fill="url(#paint2_linear)"/>
<path d="M107.531 182.389H37.6814C34.8306 182.389 32.5195 184.691 32.5195 187.531V336.983C32.5195 339.822 34.8306 342.125 37.6814 342.125H107.531C110.381 342.125 112.692 339.822 112.692 336.983V187.531C112.692 184.691 110.381 182.389 107.531 182.389Z" fill="#535461"/>
<path d="M106.784 197.246H38.4229V327.259H106.784V197.246Z" fill="#F1F1F4"/>
<path d="M64.5232 190.434C64.8653 190.434 65.1427 190.158 65.1427 189.817C65.1427 189.476 64.8653 189.2 64.5232 189.2C64.1811 189.2 63.9038 189.476 63.9038 189.817C63.9038 190.158 64.1811 190.434 64.5232 190.434Z" fill="white"/>
<path d="M80.8392 189.196H68.1035C67.8444 189.196 67.6343 189.405 67.6343 189.663V189.967C67.6343 190.225 67.8444 190.435 68.1035 190.435H80.8392C81.0984 190.435 81.3085 190.225 81.3085 189.967V189.663C81.3085 189.405 81.0984 189.196 80.8392 189.196Z" fill="white"/>
<path d="M72.2939 337.787C74.6963 337.787 76.6439 335.846 76.6439 333.453C76.6439 331.06 74.6963 329.12 72.2939 329.12C69.8914 329.12 67.9438 331.06 67.9438 333.453C67.9438 335.846 69.8914 337.787 72.2939 337.787Z" fill="white"/>
<path opacity="0.1" d="M95.9121 205.029H49.2959V240.029H95.9121V205.029Z" fill="black"/>
<path d="M95.9121 244.404H49.2959V279.404H95.9121V244.404Z" fill="white"/>
<path opacity="0.2" d="M69.3941 247.434H53.8569V256.185H69.3941V247.434Z" fill="white"/>
<path d="M91.3504 247.434H73.1104V249.453H91.3504V247.434Z" fill="#E6E8EC"/>
<path d="M85.9493 250.799H73.1104V252.819H85.9493V250.799Z" fill="#E6E8EC"/>
<path d="M91.3504 254.161H73.1104V256.18H91.3504V254.161Z" fill="#E6E8EC"/>
<path d="M91.3554 257.526H53.8569V259.546H91.3554V257.526Z" fill="#E6E8EC"/>
<path d="M91.3554 260.892H53.8569V262.912H91.3554V260.892Z" fill="#E6E8EC"/>
<path d="M91.3554 264.258H53.8569V266.277H91.3554V264.258Z" fill="#E6E8EC"/>
<path d="M88.3146 267.624H53.8569V269.643H88.3146V267.624Z" fill="#E6E8EC"/>
<path d="M91.3554 270.99H53.8569V273.009H91.3554V270.99Z" fill="#E6E8EC"/>
<path d="M91.3554 274.355H53.8569V276.375H91.3554V274.355Z" fill="#E6E8EC"/>
<path d="M95.9121 283.859H49.2959V318.859H95.9121V283.859Z" fill="white"/>
<path opacity="0.2" d="M69.3941 286.888H53.8569V295.639H69.3941V286.888Z" fill="white"/>
<path d="M91.3504 286.888H73.1104V288.908H91.3504V286.888Z" fill="#E6E8EC"/>
<path d="M85.9493 290.254H73.1104V292.274H85.9493V290.254Z" fill="#E6E8EC"/>
<path d="M91.3504 293.62H73.1104V295.64H91.3504V293.62Z" fill="#E6E8EC"/>
<path d="M91.3554 296.986H53.8569V299.005H91.3554V296.986Z" fill="#E6E8EC"/>
<path d="M91.3554 300.352H53.8569V302.371H91.3554V300.352Z" fill="#E6E8EC"/>
<path d="M91.3554 303.717H53.8569V305.737H91.3554V303.717Z" fill="#E6E8EC"/>
<path d="M88.3146 307.083H53.8569V309.102H88.3146V307.083Z" fill="#E6E8EC"/>
<path d="M91.3554 310.444H53.8569V312.464H91.3554V310.444Z" fill="#E6E8EC"/>
<path d="M91.3554 313.81H53.8569V315.83H91.3554V313.81Z" fill="#E6E8EC"/>
<path d="M255.118 300.394C251.964 296.584 248.144 292.203 248.679 287.131C249.111 283.022 248.074 279.226 248.281 275.108C248.571 269.255 247.384 264.669 243.152 260.915C240.679 258.723 236.544 256.998 235.315 257.437C232.875 258.307 230.214 257.975 227.704 258.559C225.798 259.027 224.527 259.686 223.743 260.541C222.162 261.944 222.133 263.935 222.856 266.062C222.225 267.211 221.844 268.48 221.738 269.785C221.632 271.09 221.804 272.403 222.241 273.638C222.678 274.873 223.372 276.002 224.277 276.952C225.182 277.902 226.277 278.652 227.492 279.152C225.733 279.881 224.208 281.568 223.621 284.99C223.204 287.342 222.575 289.651 221.744 291.89C221.371 292.067 220.989 292.223 220.599 292.358C220.683 292.39 220.773 292.414 220.862 292.447C220.679 292.517 220.491 292.587 220.308 292.652C220.646 292.783 220.994 292.883 221.35 292.951C220.069 296.262 218.349 299.386 216.235 302.24C216.235 302.24 210.923 303.409 208.858 301.366C208.858 301.366 209.196 301.759 209.651 302.348C207.629 301.511 204.316 300.15 201.481 299.029C199.426 298.215 198.896 299.029 198.924 300.16C198.419 300.218 197.93 300.377 197.488 300.627C196.88 300.239 196.243 299.898 195.583 299.608C194.4 299.318 190.566 297.271 186.728 304.283C184.494 308.364 178.75 315.806 174.363 321.318C165.799 325.24 154.654 330.2 150.515 331.457H147.868C147.521 330.891 147.277 330.522 147.277 330.522L147.071 330.658L146.982 330.522C146.982 330.522 141.768 334.117 136.475 334.145C135.722 334.133 134.972 334.036 134.241 333.855C131.806 333.243 130.093 332.972 128.868 332.995C127.418 332.972 126.597 333.313 126.085 333.958C126.019 334.043 125.958 334.132 125.902 334.225C125.846 334.32 125.794 334.418 125.748 334.519C125.701 334.622 125.658 334.729 125.616 334.842C125.6 334.94 125.606 335.041 125.635 335.136C125.663 335.232 125.713 335.32 125.78 335.393C125.851 335.495 125.928 335.591 126.01 335.683L126.156 335.842C127.204 336.814 128.34 337.689 129.549 338.455C129.985 338.75 130.445 339.049 130.928 339.357L131.843 339.937L132.66 340.447L132.988 340.648L133.354 340.872L134.007 341.269L134.396 341.503L135.128 341.938L135.719 342.288C137.268 343.223 138.816 344.084 140.205 344.864L141.182 345.411L141.275 345.463L141.9 345.809L142.984 346.407L143.73 346.814L144.077 347.005L144.452 347.206L144.527 347.248L145.175 347.599C145.308 347.621 145.445 347.614 145.575 347.578C145.706 347.543 145.827 347.48 145.93 347.393C146.118 346.599 146.578 344.897 147.066 344.766C147.554 344.635 149.685 340.914 150.29 338.437H156.048C157.179 338.342 158.303 338.172 159.412 337.927C157.925 338.983 156.451 339.647 155.306 339.362C152.885 338.764 150.59 340.232 150.36 341.699L150.332 341.788C150.332 341.816 150.332 341.849 150.332 341.877C150.332 341.905 150.332 341.947 150.332 341.985C150.332 342.022 150.332 342.045 150.332 342.073C150.332 342.101 150.332 342.144 150.332 342.181C150.332 342.218 150.332 342.242 150.332 342.27C150.332 342.298 150.332 342.345 150.332 342.377C150.332 342.41 150.332 342.433 150.332 342.461C150.332 342.49 150.332 342.541 150.36 342.578C150.388 342.616 150.36 342.63 150.36 342.653C150.378 342.704 150.398 342.754 150.421 342.803V342.84C150.453 342.902 150.489 342.961 150.529 343.018L150.576 343.079L150.67 343.195L150.736 343.261L150.844 343.364L150.923 343.429L151.05 343.523L151.144 343.583L151.299 343.672L151.402 343.728L151.594 343.817L151.693 343.859C151.796 343.901 151.904 343.943 152.021 343.981C152.139 344.018 152.425 344.102 152.674 344.163L152.922 344.224L153.284 344.308L153.476 344.35L154.264 344.509L154.649 344.579L154.964 344.635L155.686 344.761L157.094 344.99L158.338 345.177L159.957 345.407L160.313 345.453L160.895 345.533L161.73 345.645L162.303 345.72L163.781 345.907L164.25 345.963L165.189 346.075C166.414 346.22 167.601 346.36 168.69 346.482L169.952 346.622L170.59 346.692L170.862 346.72L171.627 346.804L172.054 346.851L172.575 346.907L173.312 346.982H173.391L173.861 347.029C173.919 347.034 173.979 347.028 174.035 347.01C174.091 346.992 174.143 346.962 174.187 346.923C174.231 346.884 174.267 346.836 174.291 346.783C174.316 346.729 174.329 346.671 174.33 346.613C174.33 346.613 174.33 346.58 174.33 346.566C174.375 346.499 174.399 346.421 174.4 346.341C174.412 345.642 174.5 344.946 174.663 344.266C174.696 344.149 174.734 344.027 174.771 343.911L174.818 343.775C174.87 343.63 174.921 343.485 174.982 343.336C175.024 343.23 175.06 343.122 175.09 343.013L175.118 342.91C175.118 342.854 175.146 342.793 175.161 342.733C175.757 340.713 175.039 336.95 174.832 335.473C174.767 334.996 174.659 334.527 174.508 334.07C174.546 334.074 174.583 334.074 174.621 334.07C174.927 333.957 175.215 333.799 175.475 333.603C179.825 332.056 183.499 330.288 184.658 328.517C186.544 328.016 188.548 328.224 190.289 329.101C192.542 330.218 209.59 335.758 217.53 338.32C218.938 339.544 220.073 340.26 220.688 340.19C220.688 340.19 230.791 341.816 234.855 338.638C235.216 338.885 235.442 339.021 235.442 339.021C235.442 339.021 241.345 336.099 242.232 332.303C242.518 331.074 242.776 329.255 243.039 327.245C244.41 325.871 245.18 324.013 245.183 322.075C245.366 315.694 247.849 308.406 249.688 301.913C251.922 302.086 252.785 301.67 254.85 300.66L254.761 300.543L255.118 300.394ZM221.275 309.949L220.148 309.57C220.53 309.062 220.859 308.517 221.129 307.943L221.275 309.949ZM214.921 312.632L221.763 316.722L221.824 317.554C221.74 318.188 221.759 318.83 221.88 319.457C218.867 316.788 215.339 313.548 214.926 312.632H214.921ZM212.129 306.676C211.383 306.368 210.763 306.092 210.341 305.863L211.927 305.961C212.021 306.192 212.09 306.431 212.133 306.676H212.129ZM193.828 313.338C193.828 313.338 195.01 310.711 197.666 315.091C198.079 315.773 198.839 316.853 199.844 318.2L192.12 317.167C192.922 316.008 193.498 314.709 193.818 313.338H193.828Z" fill="url(#paint3_linear)"/>
<path d="M210.819 302.778C210.819 302.778 205.404 300.506 201.134 298.804C196.864 297.103 199.426 302.778 199.426 302.778C199.426 302.778 206.549 304.764 206.549 305.05C206.549 305.335 212.532 305.615 212.532 305.615L210.819 302.778Z" fill="#F7C4A7"/>
<path opacity="0.05" d="M210.819 302.778C210.819 302.778 205.404 300.506 201.134 298.804C196.864 297.103 199.426 302.778 199.426 302.778C199.426 302.778 206.549 304.764 206.549 305.05C206.549 305.335 212.532 305.615 212.532 305.615L210.819 302.778Z" fill="black"/>
<path d="M233.883 280.358C233.883 280.358 224.198 275.248 222.485 285.182C221.419 291.229 218.988 296.957 215.376 301.932C215.376 301.932 210.247 303.068 208.252 301.081C208.252 301.081 213.095 306.756 210.815 307.326C210.815 307.326 215.944 311.015 218.224 309.879C220.505 308.743 222.213 301.081 223.067 299.094C223.921 297.107 227.056 279.787 233.883 280.358Z" fill="#575988"/>
<path opacity="0.1" d="M233.883 280.358C233.883 280.358 224.198 275.248 222.485 285.182C221.419 291.229 218.988 296.957 215.376 301.932C215.376 301.932 210.247 303.068 208.252 301.081C208.252 301.081 213.095 306.756 210.815 307.326C210.815 307.326 215.944 311.015 218.224 309.879C220.505 308.743 222.213 301.081 223.067 299.094C223.921 297.107 227.056 279.787 233.883 280.358Z" fill="black"/>
<path d="M228.482 276.95C228.482 276.95 234.465 283.761 234.752 289.436C235.038 295.111 241.589 283.476 242.161 283.19C242.734 282.905 236.46 273.261 235.887 270.143C235.315 267.025 228.482 276.95 228.482 276.95Z" fill="#F7C4A7"/>
<path d="M232.612 279.862L228.839 283.266L230.617 290.432L235.46 285.893L234.892 281.354L232.612 279.862Z" fill="#F7C4A7"/>
<path d="M153.837 330.312H147.286L149.848 336.553L156.118 334.851L153.837 330.312Z" fill="#F7C4A7"/>
<path opacity="0.1" d="M148.797 329.41C148.797 329.41 142.021 334.117 136.217 332.649C130.412 331.181 128.845 331.714 128.169 333.626C127.545 335.365 144.363 344.57 147.042 346.024C147.085 346.052 147.133 346.069 147.184 346.073C147.234 346.078 147.285 346.07 147.332 346.05C147.378 346.03 147.419 345.999 147.451 345.959C147.482 345.919 147.503 345.872 147.512 345.823C147.695 345.051 148.136 343.396 148.605 343.27C149.22 343.107 152.031 337.885 151.89 335.823C151.749 333.762 148.797 329.41 148.797 329.41Z" fill="black"/>
<path d="M148.516 329.41C148.516 329.41 141.74 334.117 135.935 332.649C130.13 331.181 128.563 331.714 127.887 333.626C127.263 335.365 144.081 344.57 146.761 346.024C146.803 346.052 146.851 346.069 146.902 346.073C146.952 346.078 147.003 346.07 147.05 346.05C147.096 346.03 147.137 345.999 147.169 345.959C147.2 345.919 147.221 345.872 147.23 345.823C147.413 345.051 147.854 343.396 148.323 343.27C148.938 343.107 151.749 337.885 151.608 335.823C151.467 333.762 148.516 329.41 148.516 329.41Z" fill="#F3B5B7"/>
<path d="M204.55 318.106L185.461 315.554C185.461 315.554 154.405 330.312 150.703 330.597L151.557 337.142H157.254C159.534 337.142 181.754 332.317 184.888 327.493C186.702 327.012 188.63 327.213 190.303 328.059C193.152 329.461 220.505 338.278 220.505 338.278L204.55 318.106Z" fill="#575988"/>
<path opacity="0.1" d="M204.55 318.106L185.461 315.554C185.461 315.554 154.405 330.312 150.703 330.597L151.557 337.142H157.254C159.534 337.142 181.754 332.317 184.888 327.493C186.702 327.012 188.63 327.213 190.303 328.059C193.152 329.461 220.505 338.278 220.505 338.278L204.55 318.106Z" fill="black"/>
<path d="M170.646 326.904L167.511 330.878L170.646 332.579L175.207 329.176L170.646 326.904Z" fill="#F7C4A7"/>
<path d="M225.061 322.36C225.061 322.36 214.813 313.618 214.095 312.029C213.377 310.44 196.572 299.66 195.432 299.375C194.292 299.089 190.589 297.103 186.887 303.914C183.185 310.725 169.524 327.185 169.524 327.185C169.524 327.185 173.799 333.145 175.221 332.86C176.643 332.574 192.584 319.237 193.738 312.707C193.738 312.707 194.878 310.154 197.441 314.408C200.003 318.662 216.53 339.1 219.665 338.815C219.665 338.815 231.917 340.802 234.479 335.978C237.041 331.153 225.061 322.36 225.061 322.36Z" fill="#575988"/>
<path d="M222.185 276.539H179.524V308.565H222.185V276.539Z" fill="url(#paint4_linear)"/>
<path d="M220.439 277.843H181.265V307.256H220.439V277.843Z" fill="white"/>
<path opacity="0.2" d="M198.159 280.391H185.099V287.744H198.159V280.391Z" fill="white"/>
<path d="M216.61 280.391H201.279V282.088H216.61V280.391Z" fill="#E6E8EC"/>
<path d="M212.068 283.219H201.279V284.916H212.068V283.219Z" fill="#E6E8EC"/>
<path d="M216.61 286.047H201.279V287.744H216.61V286.047Z" fill="#E6E8EC"/>
<path d="M216.61 288.875H185.099V290.572H216.61V288.875Z" fill="#E6E8EC"/>
<path d="M216.61 291.703H185.099V293.4H216.61V291.703Z" fill="#E6E8EC"/>
<path d="M216.61 294.532H185.099V296.229H216.61V294.532Z" fill="#E6E8EC"/>
<path d="M214.057 297.36H185.099V299.057H214.057V297.36Z" fill="#E6E8EC"/>
<path d="M216.61 300.188H185.099V301.885H216.61V300.188Z" fill="#E6E8EC"/>
<path d="M216.61 303.016H185.099V304.713H216.61V303.016Z" fill="#E6E8EC"/>
<path d="M230.903 280.783C230.903 280.783 227.342 282.344 227.055 288.87C226.769 295.396 220.486 306.466 220.486 306.466L221.054 319.522C221.054 319.522 227.891 326.334 228.463 330.592C229.036 334.851 233.883 337.688 233.883 337.688C233.883 337.688 239.58 334.851 240.453 331.144C241.326 327.437 241.861 318.372 243.301 314.965C244.742 311.557 243.869 290.273 243.869 290.273L239.594 282.891L237.313 280.339L231.33 287.15C231.33 287.15 228.055 282.765 230.903 280.783Z" fill="#F3B5B7"/>
<path opacity="0.1" d="M222.499 315.264C222.499 315.264 221.645 305.045 224.207 302.778L229.336 288.286C229.336 288.286 231.19 281.335 230.903 280.765C230.617 280.194 224.207 286.3 224.207 286.3L219.932 301.343L221.072 317.237L222.499 315.264Z" fill="black"/>
<path d="M222.213 315.264C222.213 315.264 221.359 305.045 223.921 302.778L229.05 288.286C229.05 288.286 231.044 281.19 230.758 280.624C230.472 280.059 223.921 286.299 223.921 286.299L219.646 301.343L220.786 317.237L222.213 315.264Z" fill="#575988"/>
<path d="M224.207 310.725C224.207 310.725 209.951 306.186 209.106 305.05C208.262 303.914 199.135 296.537 196 301.642C192.865 306.747 207.68 308.186 207.68 308.186L222.781 317.27L224.207 310.725Z" fill="#F7C4A7"/>
<path opacity="0.1" d="M171.26 330.85L167.037 330.092C167.037 330.092 160.13 338.904 156.535 338.011C152.941 337.118 149.628 340.975 153.429 342.219C156.864 343.336 171.687 344.902 174.522 345.192C174.58 345.2 174.639 345.195 174.695 345.179C174.751 345.162 174.803 345.134 174.847 345.096C174.892 345.058 174.928 345.011 174.952 344.958C174.977 344.905 174.99 344.848 174.991 344.79C175.004 343.695 175.217 342.611 175.62 341.592C176.38 339.722 175.62 335.739 175.409 334.225C175.291 333.332 175.01 332.468 174.578 331.677L171.26 330.85Z" fill="black"/>
<path d="M171.195 331.125L166.971 330.368C166.971 330.368 160.073 339.185 156.455 338.287C152.837 337.39 149.548 341.251 153.349 342.494C156.784 343.612 171.608 345.178 174.442 345.468C174.5 345.475 174.559 345.471 174.615 345.455C174.671 345.438 174.723 345.41 174.768 345.372C174.812 345.334 174.848 345.287 174.873 345.234C174.897 345.181 174.911 345.124 174.911 345.066C174.925 343.971 175.138 342.887 175.54 341.868C176.3 339.998 175.54 336.015 175.329 334.501C175.212 333.608 174.93 332.744 174.498 331.953L171.195 331.125Z" fill="#F3B5B7"/>
<path opacity="0.1" d="M230.617 280.218C235.653 280.218 239.735 276.151 239.735 271.135C239.735 266.118 235.653 262.052 230.617 262.052C225.582 262.052 221.5 266.118 221.5 271.135C221.5 276.151 225.582 280.218 230.617 280.218Z" fill="black"/>
<path d="M229.763 280.218C234.799 280.218 238.881 276.151 238.881 271.135C238.881 266.118 234.799 262.052 229.763 262.052C224.728 262.052 220.646 266.118 220.646 271.135C220.646 276.151 224.728 280.218 229.763 280.218Z" fill="#F7C4A7"/>
<path d="M238.736 280.072C238.736 280.072 249.561 283.761 249.561 291.427C249.561 299.094 243.578 311.295 243.292 321.229C243.006 331.162 227.337 329.741 227.337 329.741C227.337 329.741 225.057 296.252 227.337 293.694C229.618 291.137 239.876 281.208 238.736 280.072Z" fill="#575988"/>
<path opacity="0.1" d="M236.741 295.967C236.741 295.967 232.752 313.563 223.348 310.459C223.348 310.459 218.506 317.555 221.941 320.678C221.941 320.678 230.204 322.664 235.615 317.27C241.025 311.875 245.005 309.879 245.859 303.334C246.713 296.79 247.267 287.725 244.451 288.576C241.635 289.427 236.741 295.967 236.741 295.967Z" fill="black"/>
<path d="M237.027 295.682C237.027 295.682 233.039 313.277 223.635 310.173C223.635 310.173 218.792 317.269 222.227 320.392C222.227 320.392 230.49 322.379 235.901 316.984C241.312 311.59 245.286 309.603 246.159 303.077C247.032 296.551 247.567 287.468 244.751 288.319C241.936 289.17 237.027 295.682 237.027 295.682Z" fill="#575988"/>
<path d="M175.785 340.957C175.785 340.985 175.785 341.013 175.756 341.036C175.553 341.52 175.396 342.023 175.287 342.537C175.353 342.312 175.433 342.069 175.526 341.859C175.647 341.569 175.733 341.266 175.785 340.957Z" fill="#DDDBE2"/>
<path d="M153.579 341.667C152.406 341.284 151.913 340.653 151.894 339.989C151.425 340.924 151.716 341.952 153.373 342.494C156.808 343.612 171.636 345.178 174.466 345.468C174.524 345.476 174.584 345.471 174.64 345.454C174.697 345.437 174.749 345.409 174.793 345.37C174.838 345.332 174.873 345.284 174.898 345.231C174.922 345.178 174.935 345.12 174.935 345.061C174.937 344.957 174.9 344.857 174.831 344.779C174.763 344.701 174.668 344.652 174.564 344.64C171.444 344.304 156.967 342.766 153.579 341.667Z" fill="#DDDBE2"/>
<path d="M128.277 333.126C128.35 332.917 128.442 332.715 128.554 332.523C128.246 332.833 128.016 333.211 127.883 333.626C127.259 335.365 144.077 344.565 146.756 346.024C146.799 346.05 146.847 346.066 146.897 346.07C146.947 346.074 146.998 346.066 147.044 346.046C147.09 346.026 147.131 345.996 147.163 345.957C147.194 345.918 147.216 345.872 147.226 345.823C147.241 345.757 147.235 345.688 147.208 345.627C147.181 345.565 147.134 345.514 147.075 345.481C144.1 343.864 127.657 334.846 128.277 333.126Z" fill="#DDDBE2"/>
<path d="M148.694 342.77C148.544 342.812 148.394 343.008 148.258 343.289H148.305C148.427 343.256 148.643 343.013 148.905 342.634C148.846 342.695 148.774 342.741 148.694 342.77Z" fill="#DDDBE2"/>
<path opacity="0.1" d="M228.496 279.128C227.694 280.89 227.525 282.868 226.934 284.738C226.358 286.548 225.37 288.201 224.047 289.568C222.724 290.935 221.103 291.979 219.308 292.619C222.269 293.797 225.76 292.358 228.05 289.973C230.34 287.589 231.678 284.415 232.964 281.33C236.286 283.555 235.882 288.669 236.994 292.652C237.474 294.385 238.321 295.994 239.479 297.373C240.636 298.751 242.078 299.865 243.705 300.641C245.326 301.366 247.089 301.724 248.866 301.689C250.644 301.653 252.391 301.225 253.982 300.436C250.936 296.733 246.6 291.656 247.116 286.729C247.534 282.737 244.657 279.689 244.859 275.687C245.141 270.003 242.982 267.128 238.876 263.482C236.488 261.35 240.246 258.34 237.168 259.223C235.957 259.569 234.681 258.288 233.494 258.704C231.147 259.546 228.571 259.228 226.15 259.793C213.56 262.729 229.66 276.552 228.496 279.128Z" fill="black"/>
<path d="M228.782 278.843C227.98 280.606 227.811 282.583 227.22 284.453C226.644 286.263 225.656 287.916 224.333 289.283C223.011 290.65 221.389 291.695 219.594 292.334C222.555 293.513 226.047 292.073 228.337 289.689C230.627 287.304 231.964 284.13 233.25 281.045C236.572 283.27 236.168 288.384 237.281 292.367C237.76 294.1 238.607 295.709 239.765 297.088C240.923 298.466 242.364 299.581 243.991 300.356C245.613 301.082 247.375 301.439 249.153 301.404C250.93 301.368 252.677 300.94 254.268 300.151C251.222 296.448 247.173 292.204 247.698 287.295C248.116 283.303 247.492 279.203 247.698 275.202C247.98 269.517 245.188 264.043 241.1 260.397C238.712 258.265 235 257.994 233.794 258.419C231.448 259.261 228.871 258.943 226.45 259.509C213.846 262.449 229.955 276.267 228.782 278.843Z" fill="#B96B6B"/>
<path d="M76.8787 365.27C93.3027 360.235 102.998 360.651 102.998 360.651L101.651 353.045C102.072 352.764 102.453 352.43 102.786 352.05C102.786 352.05 101.102 342.817 102.786 340.508C104.471 338.198 109.107 317.218 109.107 317.218V310.08C117.554 307.144 127.432 290.147 127.432 290.147L139.863 322.033C139.863 322.033 152.289 346.585 153.973 347.422C155.32 348.09 155.991 353.583 156.212 355.766L156.108 355.799C156.16 356.327 156.183 356.654 156.183 356.654L156.282 356.589V356.654C156.491 356.509 156.71 356.381 156.939 356.271C154.513 359.048 150.881 363.04 147.859 365.676C146.193 367.13 149.182 368.252 150.58 368.229C151.376 368.203 152.17 368.315 152.927 368.561C160.008 370.996 171.65 362.105 171.65 362.105L168.736 354.008C169.496 353.948 169.966 353.919 169.966 353.919C169.966 353.919 160.487 320.766 156.061 317.616C154.663 316.6 153.401 315.409 152.307 314.072C150.203 311.524 149.142 308.278 149.337 304.984L150.89 277.782C153.387 277.418 154.996 277.114 154.996 277.114C154.996 277.114 155.578 269.681 155.559 263.978C155.559 261.009 155.437 258.405 154.996 257.386C154.475 256.18 154.311 253.768 154.302 251.346C154.302 248.074 154.574 245.008 154.574 245.008C154.574 245.008 157.943 240.599 162.579 230.516C164.621 226.08 165.151 222.569 165.104 220.054C165.136 218.882 165.022 217.711 164.766 216.567C164.635 216.001 164.392 215.467 164.051 214.995C163.71 214.524 163.278 214.126 162.781 213.822C160.116 212.196 154.048 208.18 152.26 204.291C149.989 199.354 146.709 198.653 146.578 198.625L146.376 197.755C147.634 196.719 148.552 195.332 149.013 193.773C149.698 191.669 149.839 189.425 150.421 187.289C150.702 186.26 151.092 185.264 151.359 184.236C151.627 183.201 151.754 182.135 151.74 181.067C151.79 179.51 151.469 177.964 150.801 176.555C149.712 174.326 147.544 172.573 145.076 172.283C143.715 172.124 142.209 172.358 141.092 171.568C140.322 171.021 139.919 170.09 139.215 169.441C137.878 168.178 135.738 168.244 133.997 168.833C131.653 169.634 129.644 171.192 128.291 173.26C127.479 174.503 126.911 175.929 125.869 177C124.992 177.892 123.842 178.463 122.875 179.257C122.16 179.814 121.578 180.522 121.172 181.331C120.766 182.139 120.547 183.028 120.529 183.932C120.529 183.932 120.529 183.979 120.529 184.002C120.529 184.119 120.529 184.236 120.529 184.353C120.576 186.157 121.838 187.952 123.612 188.317C124.077 188.402 124.552 188.415 125.02 188.354C124.62 189.827 124.523 191.365 124.734 192.876C124.945 194.387 125.46 195.84 126.248 197.147C127.036 198.455 128.082 199.591 129.321 200.487C130.561 201.382 131.969 202.02 133.462 202.36C133.434 202.51 133.401 202.659 133.368 202.827H133.467C133.263 203.555 133.009 204.267 132.706 204.959H132.57L132.913 204.351L128.08 204.02C126.672 203.914 125.262 204.177 123.988 204.781C122.322 205.586 120.501 207.119 120.276 210.017C119.853 215.449 109.53 223.63 109.53 223.63C105.949 229.296 82.5661 230.343 82.5661 230.343C82.5661 230.343 82.6693 230.474 82.7163 230.544L82.247 230.455L80.4779 230.133C80.4779 230.133 75.0016 213.977 69.7365 216.912C64.4715 219.848 78.7932 235.798 78.7932 235.798L82.9321 236.074L83.3498 236.102C83.1978 237.148 82.98 238.183 82.6975 239.202C82.6412 239.407 82.5989 239.538 82.5896 239.571C82.5896 239.571 93.4764 238.318 102.725 238.519H103.561L104.152 238.491C104.621 243.554 111.867 253.843 111.867 253.843L116.339 254.778L116.677 254.848C115.235 257.817 113.405 260.582 111.233 263.071L109.76 271.256L109.877 271.228L109.76 271.887C110.012 271.826 110.246 271.704 110.44 271.532C107.554 279.161 102.768 291.035 99.4406 295.177C94.3867 301.474 95.0155 311.538 95.0155 311.538C95.0155 311.538 89.9616 337.979 90.1728 342.803C90.1972 345.132 89.5647 347.42 88.3474 349.408C87.356 350.542 86.4848 351.775 85.7477 353.087C81.9561 359.595 75.8463 359.165 75.8463 359.165C70.5812 362.54 76.8787 365.27 76.8787 365.27ZM109.412 237.28L109.957 237.065L110.083 237.014L110.604 236.789L110.693 236.747L111.163 236.532L111.266 236.486L111.763 236.238L111.881 236.177L112.35 235.929H112.387L112.857 235.658L112.969 235.593L113.439 235.322L113.514 235.275L113.922 235.027L114.016 234.971L114.452 234.695L114.551 234.63L114.954 234.363L114.992 234.34L115.405 234.055L115.499 233.989L115.893 233.709L115.954 233.667L116.301 233.414L116.376 233.358L116.738 233.082L116.813 233.026L117.141 232.769H117.169L117.502 232.503L117.573 232.447L117.887 232.189L117.915 232.166L118.197 231.928L118.244 231.886L118.521 231.647L118.563 231.61L118.816 231.381L119.06 231.161L119.093 231.128L119.562 230.661L120.248 230.605C120.829 231.357 121.059 232.69 121.083 234.218C121.017 238.14 119.825 242.983 119.825 242.983C119.724 245.387 119.304 247.767 118.577 250.061C118.063 250.033 117.559 249.911 117.089 249.701C117.089 249.701 117.061 249.851 117.019 250.103L116.616 250L114.565 249.491C114.565 249.491 112.861 240.852 109.412 237.28Z" fill="url(#paint5_linear)"/>
<path d="M166.535 349.048L170.444 359.898C170.444 359.898 159.741 368.079 152.786 366.387C151.739 366.128 150.671 365.956 149.595 365.873C148.155 365.765 145.677 364.723 147.207 363.39C152.143 359.09 158.722 351.101 158.722 351.101L166.535 349.048Z" fill="#4F4D59"/>
<path d="M101.552 348.024L103.401 358.472C103.401 358.472 93.9408 358.061 77.9016 362.979C77.9016 362.979 71.7308 360.314 76.8739 357.037C76.8739 357.037 82.8382 357.449 86.5406 351.096C90.2431 344.743 92.5049 345.566 92.5049 345.566L101.552 348.024Z" fill="#4F4D59"/>
<path d="M150.496 272.224L148.685 304.012C148.491 307.4 149.619 310.731 151.833 313.31C152.835 314.494 153.975 315.553 155.231 316.465C159.548 319.537 168.802 351.905 168.802 351.905C168.802 351.905 158.314 352.517 155.437 354.569C155.437 354.569 154.823 346.374 153.175 345.556C151.528 344.738 139.398 320.78 139.398 320.78L127.258 289.637C127.258 289.637 117.592 306.232 109.365 309.098V316.063C109.365 316.063 104.842 336.548 103.195 338.801C101.548 341.054 103.195 350.067 103.195 350.067C103.195 350.067 98.4646 356.009 87.5684 349.656C87.5684 349.656 91.0643 345.762 90.8532 341.05C90.642 336.338 95.5927 310.533 95.5927 310.533C95.5927 310.533 94.978 300.716 99.9099 294.555C104.842 288.394 113.049 264.852 113.049 264.852L118.708 252.721L150.496 272.224Z" fill="#787C9C"/>
<g opacity="0.1">
<path opacity="0.1" d="M166.845 351.914C166.845 351.914 157.591 319.546 153.274 316.475C151.947 315.508 150.747 314.379 149.703 313.113C147.591 310.57 146.529 307.321 146.733 304.026L148.544 272.238L118.216 253.614L118.629 252.73L150.393 272.233L148.582 304.021C148.378 307.316 149.439 310.565 151.552 313.109C152.596 314.374 153.796 315.503 155.123 316.47C159.44 319.541 168.694 351.909 168.694 351.909C168.694 351.909 158.206 352.521 155.33 354.574C155.33 354.574 155.306 354.256 155.254 353.737C159.299 352.358 166.845 351.914 166.845 351.914Z" fill="black"/>
<path opacity="0.1" d="M101.247 350.081C101.247 350.081 99.6003 341.068 101.247 338.815C102.894 336.562 107.418 316.077 107.418 316.077V309.112C115.644 306.242 125.311 289.651 125.311 289.651L126.029 291.497C123.242 295.901 115.804 306.835 109.272 309.112V316.077C109.272 316.077 104.748 336.562 103.101 338.815C101.454 341.068 103.101 350.081 103.101 350.081C103.101 350.081 100.806 352.956 95.7383 352.568C99.5158 352.246 101.247 350.081 101.247 350.081Z" fill="black"/>
</g>
<path d="M79.7554 236.579L83.7957 236.846L85.9262 236.986V231.844L83.1106 231.339L81.379 231.025C81.379 231.025 76.0342 215.253 70.8911 218.119C65.748 220.984 79.7554 236.579 79.7554 236.579Z" fill="#714B4F"/>
<path d="M144.532 194.38C144.532 194.38 147.206 204.622 148.028 210.975C148.849 217.328 128.905 212.205 128.905 212.205C128.905 212.205 136.512 202.986 132.19 198.068L144.532 194.38Z" fill="#714B4F"/>
<path d="M122.941 236.99L122.528 240.884L128.901 240.473L135.273 234.943L141.646 217.118L145.766 210.774L148.849 206.88L147.615 202.168C147.615 202.168 147.052 202.635 146.099 203.383C142.969 205.772 135.62 210.732 130.252 209.362C130.004 209.301 129.759 209.224 129.52 209.133L121.5 222.858L122.941 236.99Z" fill="#E6E6F0"/>
<path opacity="0.1" d="M145.972 200.958C145.972 200.958 149.257 201.57 151.524 206.488C153.264 210.27 159.135 214.168 161.758 215.772C162.258 216.076 162.692 216.478 163.034 216.952C163.375 217.427 163.618 217.965 163.748 218.535C164.278 220.872 164.48 225.219 161.599 231.484C157.075 241.3 153.785 245.62 153.785 245.62C153.785 245.62 152.964 255.437 154.198 258.321C155.432 261.205 154.198 276.964 154.198 276.964C154.198 276.964 132.612 281.059 125.409 276.964C118.206 272.869 119.239 257.054 119.239 257.054C119.239 257.054 112.453 271.406 109.999 271.817L111.407 263.828C111.407 263.828 119.426 255.222 119.853 244.161C119.853 244.161 122.322 234.125 120.266 231.46C120.266 231.46 85.5129 234.33 83.4575 231.872C83.4575 231.872 106.282 230.848 109.778 225.327C109.778 225.327 119.853 217.338 120.266 212.013C120.326 211.014 120.641 210.047 121.181 209.203C121.72 208.359 122.466 207.666 123.349 207.189C124.748 206.397 126.353 206.04 127.957 206.165L132.603 206.483C132.603 206.483 124.588 220.591 125.015 222.461C125.442 224.331 124.602 239.258 124.602 239.258C124.602 239.258 133.856 219.385 137.967 217.132C142.077 214.879 146.793 205.632 146.793 205.632L145.972 200.958Z" fill="black"/>
<path opacity="0.1" d="M122.941 236.99L122.528 240.884L128.901 240.473L135.273 234.943L141.646 217.118L145.766 210.774L148.849 206.88L147.615 202.168C147.615 202.168 147.052 202.635 146.099 203.383L146.381 205.001C146.381 205.001 141.65 214.252 137.54 216.505C133.429 218.759 124.175 238.631 124.175 238.631C124.175 238.631 124.996 223.672 124.588 221.835C124.307 220.582 127.911 213.677 130.252 209.362C130.004 209.301 129.759 209.224 129.52 209.133L121.5 222.858L122.941 236.99Z" fill="black"/>
<path opacity="0.1" d="M83.7955 236.85L85.9259 236.99V231.848L83.1104 231.343C84.1005 232.652 84.0676 234.924 83.7955 236.85Z" fill="black"/>
<path d="M145.972 200.322C145.972 200.322 149.257 200.934 151.524 205.852C153.264 209.634 159.135 213.533 161.758 215.136C162.258 215.441 162.692 215.842 163.034 216.317C163.375 216.791 163.618 217.329 163.748 217.899C164.278 220.236 164.48 224.584 161.599 230.848C157.075 240.665 153.785 244.984 153.785 244.984C153.785 244.984 152.964 254.801 154.198 257.685C155.432 260.57 154.198 276.328 154.198 276.328C154.198 276.328 132.612 280.423 125.409 276.328C118.206 272.233 119.239 256.456 119.239 256.456C119.239 256.456 112.453 270.793 109.999 271.2L111.407 263.211C111.407 263.211 119.426 254.605 119.853 243.544C119.853 243.544 122.322 233.508 120.266 230.843C120.266 230.843 112.247 239.449 103.199 239.258C94.1519 239.066 83.4575 240.281 83.4575 240.281C83.4575 240.281 85.5129 233.737 83.4575 231.269C83.4575 231.269 106.282 230.245 109.778 224.724C109.778 224.724 119.853 216.735 120.266 211.41C120.324 210.408 120.638 209.437 121.178 208.589C121.719 207.741 122.468 207.045 123.354 206.567C124.753 205.775 126.358 205.418 127.962 205.543L132.608 205.861C132.608 205.861 124.588 219.988 125.015 221.83C125.442 223.672 124.602 238.627 124.602 238.627C124.602 238.627 133.856 218.754 137.967 216.501C142.077 214.248 146.807 204.997 146.807 204.997L145.986 200.322" fill="#67647E"/>
<path opacity="0.1" d="M150.496 221.83C150.496 221.83 145.559 238.425 142.683 240.473C139.806 242.52 122.326 252.968 117.183 250.51C117.183 250.51 115.949 256.657 117.798 258.087C117.798 258.087 136.972 257.339 137.127 257.269C137.127 257.269 149.67 255.628 151.725 249.486C153.781 243.343 156.249 232.89 156.249 232.89L150.496 221.83Z" fill="black"/>
<path d="M124.175 240.576C124.572 240.576 124.893 240.117 124.893 239.552C124.893 238.987 124.572 238.528 124.175 238.528C123.778 238.528 123.457 238.987 123.457 239.552C123.457 240.117 123.778 240.576 124.175 240.576Z" fill="#BA7855"/>
<path d="M122.12 247.747C122.516 247.747 122.838 247.288 122.838 246.723C122.838 246.158 122.516 245.699 122.12 245.699C121.723 245.699 121.402 246.158 121.402 246.723C121.402 247.288 121.723 247.747 122.12 247.747Z" fill="#BA7855"/>
<g opacity="0.1">
<path opacity="0.1" d="M152.758 276.118C152.758 276.118 153.992 260.345 152.758 257.475C151.524 254.605 152.345 244.774 152.345 244.774C152.345 244.774 155.63 240.473 160.158 230.637C163.039 224.373 162.833 220.026 162.307 217.688C162.177 217.118 161.934 216.58 161.591 216.106C161.249 215.631 160.814 215.23 160.313 214.926C157.69 213.322 151.819 209.423 150.083 205.642C148.807 202.869 147.207 201.462 146.048 200.766L145.968 200.298C145.968 200.298 149.253 200.911 151.519 205.829C153.26 209.61 159.131 213.509 161.749 215.113C162.25 215.417 162.685 215.818 163.027 216.293C163.37 216.767 163.613 217.305 163.743 217.875C164.274 220.213 164.475 224.56 161.594 230.824C157.07 240.641 153.781 244.961 153.781 244.961C153.781 244.961 152.96 254.778 154.194 257.662C155.428 260.546 154.194 276.305 154.194 276.305C154.194 276.305 138.769 279.231 129.647 277.665C138.863 278.754 152.758 276.118 152.758 276.118Z" fill="black"/>
<path opacity="0.1" d="M125.015 221.83C125.296 223.092 125.015 230.516 124.785 235.06C123.79 237.084 123.166 238.421 123.166 238.421C123.166 238.421 123.987 223.462 123.579 221.625C123.189 219.872 130.411 207.016 131.129 205.73L132.626 205.833C132.626 205.833 124.588 219.988 125.015 221.83Z" fill="black"/>
<path opacity="0.1" d="M101.759 239.038C110.806 239.244 118.826 230.624 118.826 230.624C119.068 230.958 119.245 231.336 119.346 231.736C117 233.938 110.431 239.393 103.199 239.216C94.1519 239.01 83.4575 240.239 83.4575 240.239C83.4575 240.239 83.4998 240.104 83.5654 239.87C89.6096 239.257 95.6834 238.979 101.759 239.038Z" fill="black"/>
<path opacity="0.1" d="M117.798 256.246C117.798 256.246 117.714 257.526 117.76 259.448C115.621 263.655 111.726 270.91 109.985 271.2L110.29 269.517C113.284 265.773 117.798 256.246 117.798 256.246Z" fill="black"/>
</g>
<path d="M120.177 204.547H71.0225V241.45H120.177V204.547Z" fill="url(#paint6_linear)"/>
<path d="M118.906 205.497H72.2896V240.496H118.906V205.497Z" fill="white"/>
<path opacity="0.2" d="M92.3877 208.526H76.8506V217.277H92.3877V208.526Z" fill="white"/>
<path d="M114.344 208.526H96.104V210.545H114.344V208.526Z" fill="#E6E8EC"/>
<path d="M108.943 211.892H96.104V213.911H108.943V211.892Z" fill="#E6E8EC"/>
<path d="M114.344 215.257H96.104V217.277H114.344V215.257Z" fill="#E6E8EC"/>
<path d="M114.349 218.623H76.8506V220.643H114.349V218.623Z" fill="#E6E8EC"/>
<path d="M114.349 221.989H76.8506V224.008H114.349V221.989Z" fill="#E6E8EC"/>
<path d="M114.349 225.35H76.8506V227.37H114.349V225.35Z" fill="#E6E8EC"/>
<path d="M111.308 228.716H76.8506V230.736H111.308V228.716Z" fill="#E6E8EC"/>
<path d="M114.349 232.082H76.8506V234.102H114.349V232.082Z" fill="#E6E8EC"/>
<path d="M114.349 235.447H76.8506V237.467H114.349V235.447Z" fill="#E6E8EC"/>
<path d="M112.04 254.198L116.409 255.133L119.853 255.839L118.005 250.697L116.719 250.374L114.715 249.879C114.715 249.879 111.839 235.551 106.081 236.579C100.323 237.608 112.04 254.198 112.04 254.198Z" fill="#714B4F"/>
<path opacity="0.1" d="M116.409 255.114L119.854 255.839L118.005 250.697L116.719 250.374C116.431 251.937 116.328 253.528 116.409 255.114Z" fill="black"/>
<path d="M150.496 221.423C150.496 221.423 145.559 238.019 142.683 240.066C139.806 242.114 122.326 252.562 117.183 250.103C117.183 250.103 115.949 256.25 117.798 257.681C117.798 257.681 136.972 256.933 137.127 256.862C137.127 256.862 149.67 255.222 151.725 249.079C153.781 242.936 156.249 232.484 156.249 232.484L150.496 221.423Z" fill="#67647E"/>
<path opacity="0.1" d="M144.325 194.792C144.325 194.792 144.743 196.395 145.301 198.728C144.161 200.874 142.342 202.586 140.127 203.6C137.911 204.614 135.422 204.873 133.044 204.337C133.537 202.234 133.429 200.13 131.984 198.461L144.325 194.792Z" fill="black"/>
<path d="M135.691 204.216C141.823 204.216 146.794 199.264 146.794 193.155C146.794 187.047 141.823 182.095 135.691 182.095C129.559 182.095 124.588 187.047 124.588 193.155C124.588 199.264 129.559 204.216 135.691 204.216Z" fill="#714B4F"/>
<path opacity="0.1" d="M126.048 190.107C125.242 190.33 124.397 190.381 123.57 190.257C121.838 189.901 120.604 188.148 120.562 186.386C120.579 185.503 120.794 184.635 121.19 183.845C121.586 183.055 122.154 182.363 122.852 181.819C123.791 181.038 124.917 180.482 125.775 179.612C126.794 178.579 127.347 177.186 128.122 175.971C129.445 173.952 131.407 172.432 133.697 171.651C135.4 171.076 137.483 171.011 138.793 172.245C139.464 172.876 139.858 173.788 140.609 174.321C141.697 175.092 143.171 174.863 144.499 175.017C145.703 175.201 146.842 175.678 147.817 176.406C148.792 177.133 149.572 178.088 150.088 179.187C151.096 181.413 151.289 183.921 150.632 186.274C150.374 187.279 149.999 188.256 149.722 189.256C149.145 191.341 149.008 193.529 148.342 195.586C147.676 197.643 146.301 199.653 144.222 200.261C144.387 197.955 143.93 195.647 142.899 193.576C142.728 193.125 142.393 192.754 141.96 192.538C141.589 192.443 141.2 192.443 140.829 192.538C138.226 192.923 135.569 192.387 133.321 191.023C132.533 190.556 131.303 188.915 130.459 188.751C129.393 188.56 127.174 189.855 126.048 190.107Z" fill="black"/>
<path d="M126.048 189.696C125.242 189.919 124.397 189.97 123.57 189.846C121.838 189.49 120.604 187.737 120.562 185.975C120.579 185.092 120.794 184.224 121.19 183.434C121.586 182.644 122.154 181.952 122.852 181.408C123.791 180.627 124.917 180.071 125.775 179.201C126.794 178.168 127.347 176.775 128.122 175.56C129.445 173.541 131.407 172.021 133.697 171.24C135.4 170.665 137.483 170.6 138.793 171.834C139.464 172.465 139.858 173.376 140.609 173.909C141.697 174.681 143.171 174.452 144.499 174.606C145.703 174.79 146.842 175.267 147.817 175.994C148.792 176.722 149.572 177.677 150.088 178.776C151.096 181.002 151.289 183.51 150.632 185.863C150.374 186.868 149.999 187.845 149.722 188.845C149.145 190.93 149.008 193.118 148.342 195.175C147.676 197.232 146.301 199.242 144.222 199.849C144.387 197.544 143.93 195.236 142.899 193.165C142.728 192.713 142.393 192.343 141.96 192.127C141.589 192.032 141.2 192.032 140.829 192.127C138.226 192.511 135.569 191.976 133.321 190.612C132.533 190.145 131.303 188.504 130.459 188.34C129.393 188.149 127.174 189.448 126.048 189.696Z" fill="#503F43"/>
<path d="M40.436 355.415C41.296 354.716 41.9228 353.774 42.2332 352.713C42.4679 351.638 42.008 350.352 40.9756 349.96C39.8212 349.52 38.5871 350.315 37.6533 351.124C36.7194 351.932 35.6448 352.849 34.4201 352.676C35.0496 352.107 35.5205 351.386 35.7869 350.582C36.0534 349.779 36.1063 348.92 35.9405 348.09C35.8875 347.746 35.7415 347.422 35.5181 347.155C34.8752 346.472 33.7162 346.767 32.9466 347.304C30.5064 349.015 29.826 352.316 29.8119 355.289C29.5679 354.218 29.7744 353.101 29.765 352.016C29.7556 350.932 29.4553 349.679 28.5262 349.109C27.95 348.8 27.303 348.647 26.6491 348.665C25.5511 348.623 24.331 348.735 23.5802 349.534C22.6417 350.525 22.8904 352.194 23.7022 353.274C24.514 354.354 25.7435 355.05 26.8791 355.808C27.7892 356.347 28.5656 357.083 29.1503 357.963C29.2191 358.085 29.2756 358.213 29.3192 358.346H36.1845C37.7281 357.565 39.1583 356.579 40.436 355.415Z" fill="white"/>
<path d="M448.222 290.436C449.082 289.738 449.709 288.796 450.019 287.734C450.254 286.659 449.794 285.374 448.762 284.981C447.607 284.542 446.373 285.336 445.439 286.145C444.506 286.954 443.431 287.87 442.206 287.697C442.836 287.129 443.307 286.407 443.573 285.604C443.84 284.8 443.892 283.941 443.727 283.111C443.674 282.767 443.528 282.444 443.304 282.176C442.661 281.494 441.502 281.788 440.733 282.326C438.293 284.037 437.612 287.337 437.598 290.31C437.354 289.24 437.561 288.122 437.551 287.038C437.542 285.953 437.241 284.701 436.312 284.13C435.736 283.822 435.089 283.669 434.435 283.686C433.337 283.644 432.117 283.756 431.366 284.556C430.428 285.547 430.676 287.216 431.488 288.295C432.3 289.375 433.53 290.072 434.665 290.829C435.575 291.368 436.352 292.105 436.936 292.984C437.005 293.106 437.062 293.235 437.105 293.367H443.98C445.52 292.586 446.947 291.6 448.222 290.436Z" fill="white"/>
<path d="M509.216 149.914C508.245 147.081 506.842 143.491 505.734 142.645C505.667 142.59 505.593 142.545 505.514 142.509H505.378V139.008L502.759 139.424C502.343 138.159 502.029 136.863 501.821 135.548C502.073 135.8 502.394 135.972 502.744 136.041C503.094 136.111 503.457 136.076 503.787 135.941C503.745 135.871 503.707 135.796 503.67 135.721L503.787 135.67C503.375 134.946 503.156 134.128 503.154 133.295C503.174 132.535 503.296 131.78 503.515 131.051C503.984 129.439 504.777 127.933 505.218 126.311C505.5 125.267 505.633 124.189 505.613 123.109C505.627 121.277 505.209 119.468 504.392 117.827C504.186 117.353 503.863 116.938 503.454 116.62C503.085 116.417 502.706 116.233 502.318 116.069C501.667 115.632 501.107 115.075 500.667 114.428C498.806 112.171 496.316 110.515 493.51 109.669C492.779 109.397 491.986 109.334 491.22 109.487C489.461 109.954 488.822 112.128 487.396 113.269C486.138 114.274 484.411 114.377 482.83 114.713C481.249 115.05 479.658 115.718 478.578 116.934C477.835 117.781 477.429 118.87 477.438 119.996C477.395 120.521 477.488 121.049 477.708 121.529C477.928 122.008 478.268 122.424 478.696 122.735C479.183 123.053 479.735 123.26 480.311 123.341C480.888 123.422 481.476 123.374 482.032 123.202C481.597 124.699 481.478 126.268 481.68 127.813C481.883 129.358 482.405 130.844 483.211 132.178C484.018 133.513 485.093 134.666 486.369 135.567C487.644 136.468 489.093 137.097 490.624 137.414L490.929 137.961C491.872 139.71 492.588 141.571 493.06 143.5C490.648 144.86 488.015 146.137 486.425 146.258C486.36 146.878 486.244 147.491 486.077 148.091C485.705 149.596 484.991 150.995 483.989 152.181C481.826 154.603 472.098 172.909 472.098 172.909C472.098 172.909 471.793 173.638 471.291 174.882C465.252 175.62 455.392 176.686 452.643 176.139L441.85 165.911C441.85 165.911 438.358 168.566 438.663 171.792L436.716 169.95C436.716 169.95 426.449 177.757 442.661 182.871L467.33 185.722C464.984 192.786 462.788 201.009 463.468 205.482H463.67C464.141 205.482 464.612 205.446 465.078 205.375L465.036 206.17L462.661 248.551C462.661 248.551 462.122 256.358 469.419 259.854C469.419 259.854 478.334 285.963 474.824 288.926C474.824 288.926 475.242 289.146 475.946 289.45L468.611 295.924C468.611 295.924 463.206 297.271 460.235 297C459.713 296.928 459.183 297.051 458.746 297.344C458.309 297.637 457.995 298.08 457.865 298.589C457.865 298.645 457.865 298.701 457.837 298.757V298.827C457.837 298.884 457.837 298.94 457.837 299C457.837 299.061 457.837 299.043 457.837 299.066C457.837 299.089 457.837 299.164 457.837 299.215C457.837 299.267 457.837 299.258 457.837 299.276C457.837 299.295 457.837 299.393 457.87 299.449V299.515C457.886 299.577 457.906 299.639 457.931 299.702L457.955 299.758C457.978 299.819 458.006 299.879 458.039 299.94V299.982C458.072 300.043 458.109 300.099 458.147 300.16L458.18 300.211C458.224 300.274 458.272 300.336 458.325 300.398L458.368 300.445C458.424 300.51 458.485 300.571 458.546 300.632L458.574 300.655L458.776 300.828L458.818 300.861C458.893 300.922 458.978 300.978 459.062 301.034L459.118 301.071C459.207 301.127 459.301 301.184 459.4 301.235H459.442L459.747 301.385H459.789L460.146 301.525L460.221 301.553L460.611 301.679H460.676L461.103 301.791H461.136L461.605 301.885H461.699L462.206 301.96H462.305L462.877 302.016C463.989 302.1 465.486 302.133 467.218 302.123C467.218 302.123 467.218 302.165 467.218 302.189C467.218 302.212 467.218 302.287 467.218 302.338V302.399C467.218 302.455 467.218 302.516 467.251 302.572V302.637C467.266 302.7 467.287 302.762 467.312 302.824L467.335 302.881C467.358 302.941 467.387 303.002 467.42 303.063V303.105C467.452 303.166 467.49 303.222 467.527 303.283L467.56 303.334C467.604 303.396 467.653 303.459 467.706 303.521L467.748 303.568C467.804 303.633 467.865 303.694 467.926 303.755L467.954 303.778L468.156 303.951L468.198 303.984C468.274 304.045 468.358 304.101 468.442 304.157L468.503 304.194C468.593 304.25 468.686 304.306 468.785 304.358H468.827L469.132 304.507H469.175L469.531 304.648L469.606 304.676L469.996 304.802H470.061L470.488 304.914H470.521L470.991 305.008H471.084L471.591 305.082H471.69L472.262 305.138C479.301 305.676 501.713 304.063 501.713 304.063V304.002V303.923C501.933 302.88 503.013 296.822 499.184 292.344C499.296 292.227 499.409 292.101 499.512 291.97C499.512 291.97 496.542 286.855 498.161 285.238C499.78 283.621 490.057 255.628 490.057 255.628C490.057 255.628 484.923 247.555 487.893 238.402C490.864 229.249 487.621 219.292 487.621 219.292C487.621 219.292 494.707 217.193 494.852 208.502C494.852 208.241 494.852 207.969 494.852 207.694C495.008 207.716 495.165 207.725 495.322 207.722C495.422 207.729 495.522 207.729 495.622 207.722C495.622 207.722 494.27 202.879 495.894 199.377C497.518 195.876 501.028 199.106 504.27 184.843C506.617 174.522 508.681 162.648 509.643 156.87C510.062 154.551 509.915 152.165 509.216 149.914ZM447.551 180.192L445.087 177.855C445.904 178.191 446.81 178.523 447.823 178.841L457.115 179.916C452.966 180.3 449.114 180.505 447.551 180.197V180.192Z" fill="url(#paint7_linear)"/>
<path d="M471.07 178.823C471.07 178.823 451.957 181.469 447.973 180.693L437.354 170.642C437.354 170.642 427.265 178.313 443.196 183.334L472.929 186.77L471.07 178.823Z" fill="#FDC2CC"/>
<path opacity="0.05" d="M471.07 178.823C471.07 178.823 451.957 181.469 447.973 180.693L437.354 170.642C437.354 170.642 427.265 178.313 443.196 183.334L472.929 186.77L471.07 178.823Z" fill="black"/>
<path d="M477.973 286.192L468.682 294.391C468.682 294.391 463.375 295.714 460.451 295.448C457.528 295.181 456.204 299.945 463.107 300.473C470.01 301.001 492.042 299.417 492.042 299.417C492.042 299.417 494.168 290.955 487.795 286.192H477.973Z" fill="#47465A"/>
<path opacity="0.05" d="M477.973 286.192L468.682 294.391C468.682 294.391 463.375 295.714 460.451 295.448C457.528 295.181 456.204 299.945 463.107 300.473C470.01 301.001 492.042 299.417 492.042 299.417C492.042 299.417 494.168 290.955 487.795 286.192H477.973Z" fill="black"/>
<path opacity="0.3" d="M492.375 295.751C492.359 296.715 492.247 297.675 492.041 298.617C492.041 298.617 469.986 300.202 463.107 299.674C459.789 299.421 458.377 298.187 458.123 297.004C457.823 298.36 459.024 300.155 463.107 300.468C470.01 300.997 492.041 299.412 492.041 299.412C492.3 298.209 492.412 296.98 492.375 295.751Z" fill="white"/>
<path d="M488.855 136.245C488.855 136.245 494.698 144.445 492.572 149.998C490.446 155.552 503.708 144.178 503.708 144.178C503.708 144.178 499.461 136.773 501.582 128.84L488.855 136.245Z" fill="#FDC2CC"/>
<path d="M487.283 289.361L477.992 297.561C477.992 297.561 472.685 298.884 469.761 298.617C466.838 298.351 465.514 303.114 472.417 303.643C479.32 304.171 501.352 302.586 501.352 302.586C501.352 302.586 503.478 294.125 497.105 289.361H487.283Z" fill="#47465A"/>
<path d="M489.92 287.51C488.536 289.212 486.584 289.848 484.543 289.964C479.902 290.184 474.791 287.51 474.791 287.51C478.24 284.602 469.484 258.948 469.484 258.948C462.318 255.512 462.849 247.84 462.849 247.84L465.195 206.203L465.782 195.745L473.215 191.248L479.076 195.726L484.632 199.976C484.993 201.327 485.225 202.709 485.326 204.104C485.969 213.822 478.259 216.108 478.259 216.108C478.259 216.108 481.445 225.893 478.527 234.882C475.608 243.872 480.652 251.805 480.652 251.805C480.652 251.805 490.211 279.306 488.63 280.895C487.048 282.485 489.92 287.51 489.92 287.51Z" fill="#565171"/>
<path opacity="0.05" d="M489.92 287.51C488.536 289.212 486.584 289.848 484.543 289.964C479.902 290.184 474.791 287.51 474.791 287.51C478.24 284.602 469.484 258.948 469.484 258.948C462.318 255.512 462.849 247.84 462.849 247.84L465.195 206.203L465.782 195.745L473.215 191.248L479.076 195.726L484.632 199.976C484.993 201.327 485.225 202.709 485.326 204.104C485.969 213.822 478.259 216.108 478.259 216.108C478.259 216.108 481.445 225.893 478.527 234.882C475.608 243.872 480.652 251.805 480.652 251.805C480.652 251.805 490.211 279.306 488.63 280.895C487.048 282.485 489.92 287.51 489.92 287.51Z" fill="black"/>
<path d="M499.212 290.684C494.697 296.238 484.083 290.684 484.083 290.684C484.299 290.489 484.461 290.241 484.552 289.964C486.499 284.691 477.982 259.48 477.982 259.48C470.817 256.044 470.005 247.845 470.005 247.845L468.128 205.468L467.884 199.98L479.052 195.731L482.482 194.427L493.899 203.154C494.394 204.956 494.64 206.817 494.632 208.685C494.486 217.225 487.527 219.287 487.527 219.287C487.527 219.287 490.713 229.071 487.794 238.061C484.876 247.05 489.92 254.983 489.92 254.983C489.92 254.983 499.479 282.485 497.898 284.074C496.316 285.664 499.212 290.684 499.212 290.684Z" fill="#565171"/>
<path opacity="0.1" d="M494.632 208.68C492.337 208.353 487.692 205.599 485.303 204.103C484.393 203.533 483.811 203.168 483.811 203.168C483.811 203.168 481.422 196.558 475.05 201.584C472.978 203.26 470.638 204.578 468.128 205.482C467.168 205.821 466.178 206.068 465.172 206.221L465.758 195.764L473.192 191.267L479.053 195.745L482.483 194.441L493.9 203.168C494.393 204.964 494.639 206.818 494.632 208.68Z" fill="black"/>
<path d="M509.001 157.95C508.062 163.625 506.025 175.289 503.721 185.433C500.535 199.457 497.086 196.273 495.491 199.714C493.895 203.155 495.223 207.914 495.223 207.914C492.567 208.18 483.806 202.36 483.806 202.36C483.806 202.36 481.418 195.75 475.045 200.775C468.672 205.801 463.628 205.534 463.628 205.534C462.3 196.806 472.121 173.536 472.121 173.536C472.121 173.536 481.68 155.552 483.801 153.172C484.785 152.007 485.487 150.631 485.852 149.152C486.015 148.563 486.128 147.961 486.19 147.352C489.639 147.086 498.137 141.275 498.137 141.275L504.772 140.219V143.655C504.85 143.689 504.922 143.733 504.988 143.786C506.082 144.618 507.457 148.147 508.409 150.929C509.183 153.185 509.386 155.597 509.001 157.95Z" fill="#F68080"/>
<path opacity="0.1" d="M503.707 147.09C503.707 147.09 496.804 141.537 486.452 159.52C476.1 177.504 473.712 174.592 473.712 174.592C473.712 174.592 475.838 182.539 474.772 184.114C474.772 184.114 481.938 183.586 484.594 184.114C487.25 184.643 503.707 164.027 503.707 164.027C503.707 164.027 512.219 152.377 503.707 147.09Z" fill="black"/>
<path opacity="0.1" d="M503.458 146.029C503.458 146.029 496.556 140.476 486.204 158.459C475.852 176.443 473.463 173.531 473.463 173.531C473.463 173.531 481.694 182.52 484.345 183.053C486.997 183.586 503.458 162.952 503.458 162.952C503.458 162.952 511.952 151.321 503.458 146.029Z" fill="black"/>
<path opacity="0.1" d="M474.543 182.394C474.651 180.435 473.909 176.99 473.482 175.204C475.097 174.994 476.115 174.854 476.115 174.854L477.992 182.801L474.543 182.394Z" fill="black"/>
<path opacity="0.1" d="M501.863 129.373L489.123 136.778C489.659 137.559 490.154 138.367 490.605 139.199C491.341 139.348 492.089 139.424 492.839 139.424C496.241 139.424 497.827 135.866 499.878 133.473C499.732 131.551 501.295 131.5 501.863 129.373Z" fill="black"/>
<path d="M492.576 138.891C498.734 138.891 503.726 133.918 503.726 127.784C503.726 121.65 498.734 116.677 492.576 116.677C486.419 116.677 481.427 121.65 481.427 127.784C481.427 133.918 486.419 138.891 492.576 138.891Z" fill="#FDC2CC"/>
<path d="M475.345 140.443H385.553V207.853H475.345V140.443Z" fill="url(#paint8_linear)"/>
<path d="M473.332 141.953H387.565V206.342H473.332V141.953Z" fill="white"/>
<path opacity="0.2" d="M424.543 147.525H395.956V163.62H424.543V147.525Z" fill="white"/>
<path d="M464.942 147.525H431.38V151.241H464.942V147.525Z" fill="#E6E8EC"/>
<path d="M454.998 153.719H431.38V157.436H454.998V153.719Z" fill="#E6E8EC"/>
<path d="M464.942 159.909H431.38V163.625H464.942V159.909Z" fill="#E6E8EC"/>
<path d="M464.942 166.098H395.956V169.814H464.942V166.098Z" fill="#E6E8EC"/>
<path d="M464.942 172.292H395.956V176.008H464.942V172.292Z" fill="#E6E8EC"/>
<path d="M464.942 178.481H395.956V182.198H464.942V178.481Z" fill="#E6E8EC"/>
<path d="M459.348 184.675H395.956V188.392H459.348V184.675Z" fill="#E6E8EC"/>
<path d="M464.942 190.865H395.956V194.581H464.942V190.865Z" fill="#E6E8EC"/>
<path d="M464.942 197.054H395.956V200.771H464.942V197.054Z" fill="#E6E8EC"/>
<path opacity="0.1" d="M478.471 118.799C479.596 117.65 481.058 116.885 482.647 116.616C484.196 116.284 485.894 116.181 487.133 115.213C488.541 114.096 489.16 111.974 490.887 111.502C491.639 111.351 492.417 111.413 493.135 111.679C495.894 112.509 498.344 114.136 500.174 116.354C500.605 116.99 501.155 117.537 501.793 117.967C502.175 118.128 502.547 118.309 502.91 118.509C503.307 118.822 503.62 119.228 503.82 119.692C505.065 122.196 505.352 125.066 504.627 127.765C504.195 129.359 503.417 130.836 502.957 132.44C502.497 134.043 502.379 135.824 503.224 137.241C502.408 137.657 501.375 137.133 500.878 136.376C500.38 135.619 500.211 134.684 499.939 133.81C499.408 132.09 498.413 130.549 497.063 129.355C496.227 128.616 494.716 128.12 494.149 129.074C493.923 129.443 493.937 129.911 493.745 130.294C493.365 131.042 492.267 131.192 491.54 130.762C490.838 130.279 490.346 129.552 490.16 128.723C489.067 125.04 487.204 122.721 483.248 124.296C481.774 124.886 480.038 125.283 478.621 124.273C476.772 122.941 477.133 120.304 478.471 118.799Z" fill="black"/>
<path d="M478.471 118.532C479.596 117.383 481.058 116.619 482.647 116.349C484.196 116.017 485.894 115.915 487.133 114.947C488.541 113.83 489.16 111.707 490.887 111.235C491.639 111.085 492.417 111.146 493.135 111.413C495.894 112.242 498.344 113.869 500.174 116.088C500.605 116.723 501.155 117.271 501.793 117.7C502.175 117.861 502.547 118.042 502.91 118.243C503.307 118.555 503.62 118.962 503.82 119.425C505.065 121.929 505.352 124.799 504.627 127.499C504.195 129.093 503.417 130.57 502.957 132.173C502.497 133.777 502.379 135.558 503.224 136.974C502.408 137.39 501.375 136.867 500.878 136.109C500.38 135.352 500.211 134.417 499.939 133.543C499.408 131.823 498.413 130.282 497.063 129.088C496.227 128.349 494.716 127.854 494.149 128.807C493.923 129.177 493.937 129.644 493.745 130.028C493.365 130.776 492.267 130.925 491.54 130.495C490.838 130.013 490.346 129.285 490.16 128.457C489.067 124.773 487.204 122.455 483.248 124.03C481.774 124.619 480.038 125.016 478.621 124.007C476.772 122.674 477.133 120.042 478.471 118.532Z" fill="#B96B6B"/>
<path opacity="0.05" d="M505.002 143.785H499.606C499.606 143.785 488.987 149.072 488.724 148.811C488.545 148.633 486.903 148.937 485.861 149.157C486.024 148.567 486.137 147.965 486.199 147.357C489.648 147.09 498.147 141.28 498.147 141.28L504.782 140.223V143.659C504.86 143.692 504.934 143.734 505.002 143.785Z" fill="black"/>
<path opacity="0.3" d="M501.666 298.926C501.65 299.89 501.539 300.85 501.333 301.791C501.333 301.791 479.278 303.376 472.398 302.848C469.081 302.595 467.668 301.361 467.415 300.179C467.115 301.534 468.316 303.329 472.398 303.643C479.301 304.171 501.333 302.586 501.333 302.586C501.591 301.384 501.703 300.155 501.666 298.926Z" fill="white"/>
<g opacity="0.05">
<path opacity="0.05" d="M472.53 200.49C468.949 203.295 465.782 204.468 463.703 204.936C463.703 205.132 463.741 205.328 463.769 205.515C463.769 205.515 468.813 205.782 475.186 200.756C476.173 199.914 477.34 199.306 478.597 198.98C477.208 198.34 475.223 198.382 472.53 200.49Z" fill="black"/>
<path opacity="0.05" d="M508.559 150.938C507.621 148.133 506.213 144.627 505.139 143.795C505.072 143.743 505 143.699 504.923 143.664C504.923 143.664 502.727 143.739 502.797 143.795C503.89 144.627 504.951 147.89 505.903 150.671C506.671 152.926 506.869 155.334 506.481 157.684C505.542 163.359 503.506 175.022 501.201 185.166C498.015 199.191 494.566 196.007 492.971 199.448C491.666 202.252 492.318 205.964 492.6 207.212C493.736 207.68 494.721 207.974 495.359 207.909C495.359 207.909 494.031 203.15 495.627 199.709C497.222 196.269 500.671 199.443 503.857 185.428C506.162 175.289 508.189 163.62 509.137 157.945C509.525 155.598 509.326 153.191 508.559 150.938Z" fill="black"/>
</g>
<path d="M477.973 182.792L474.543 182.394L448.264 179.351C432.338 174.326 442.422 166.659 442.422 166.659L453.041 176.71C456.106 177.322 468.119 175.896 473.501 175.209C475.115 174.999 476.133 174.859 476.133 174.859L477.973 182.792Z" fill="#FDC2CC"/>
<path d="M503.707 146.562C503.707 146.562 496.804 141.008 486.452 158.992C476.1 176.976 473.712 174.064 473.712 174.064C473.712 174.064 475.838 182.011 474.772 183.586C474.772 183.586 481.938 183.058 484.594 183.586C487.25 184.114 503.707 163.485 503.707 163.485C503.707 163.485 512.219 151.849 503.707 146.562Z" fill="#F68080"/>
</g>
<defs>
<linearGradient id="paint0_linear" x1="296.098" y1="279.194" x2="296.098" y2="52.7592" gradientUnits="userSpaceOnUse">
<stop stop-color="#808080" stop-opacity="0.25"/>
<stop offset="0.54" stop-color="#808080" stop-opacity="0.12"/>
<stop offset="1" stop-color="#808080" stop-opacity="0.1"/>
</linearGradient>
<linearGradient id="paint1_linear" x1="56076.3" y1="155736" x2="56076.3" y2="64261.8" gradientUnits="userSpaceOnUse">
<stop stop-color="#808080" stop-opacity="0.25"/>
<stop offset="0.54" stop-color="#808080" stop-opacity="0.12"/>
<stop offset="1" stop-color="#808080" stop-opacity="0.1"/>
</linearGradient>
<linearGradient id="paint2_linear" x1="17236" y1="127562" x2="17236" y2="71704.8" gradientUnits="userSpaceOnUse">
<stop stop-color="#808080" stop-opacity="0.25"/>
<stop offset="0.54" stop-color="#808080" stop-opacity="0.12"/>
<stop offset="1" stop-color="#808080" stop-opacity="0.1"/>
</linearGradient>
<linearGradient id="paint3_linear" x1="59990.4" y1="72346" x2="59990.4" y2="54914.7" gradientUnits="userSpaceOnUse">
<stop stop-color="#808080" stop-opacity="0.25"/>
<stop offset="0.54" stop-color="#808080" stop-opacity="0.12"/>
<stop offset="1" stop-color="#808080" stop-opacity="0.1"/>
</linearGradient>
<linearGradient id="paint4_linear" x1="16500.1" y1="20319.1" x2="20378.3" y2="20319.1" gradientUnits="userSpaceOnUse">
<stop stop-color="#808080" stop-opacity="0.25"/>
<stop offset="0.54" stop-color="#808080" stop-opacity="0.12"/>
<stop offset="1" stop-color="#808080" stop-opacity="0.1"/>
</linearGradient>
<linearGradient id="paint5_linear" x1="-52655.6" y1="169532" x2="-52655.6" y2="83499.4" gradientUnits="userSpaceOnUse">
<stop stop-color="#808080" stop-opacity="0.25"/>
<stop offset="0.54" stop-color="#808080" stop-opacity="0.12"/>
<stop offset="1" stop-color="#808080" stop-opacity="0.1"/>
</linearGradient>
<linearGradient id="paint6_linear" x1="10084.9" y1="19264.6" x2="10084.9" y2="16351.5" gradientUnits="userSpaceOnUse">
<stop stop-color="#808080" stop-opacity="0.25"/>
<stop offset="0.54" stop-color="#808080" stop-opacity="0.12"/>
<stop offset="1" stop-color="#808080" stop-opacity="0.1"/>
</linearGradient>
<linearGradient id="paint7_linear" x1="81530.3" y1="138880" x2="81530.3" y2="56737.4" gradientUnits="userSpaceOnUse">
<stop stop-color="#808080" stop-opacity="0.25"/>
<stop offset="0.54" stop-color="#808080" stop-opacity="0.12"/>
<stop offset="1" stop-color="#808080" stop-opacity="0.1"/>
</linearGradient>
<linearGradient id="paint8_linear" x1="82752.4" y1="30112.8" x2="82752.4" y2="20392.3" gradientUnits="userSpaceOnUse">
<stop stop-color="#808080" stop-opacity="0.25"/>
<stop offset="0.54" stop-color="#808080" stop-opacity="0.12"/>
<stop offset="1" stop-color="#808080" stop-opacity="0.1"/>
</linearGradient>
<clipPath id="clip0">
<rect width="510" height="369" fill="white"/>
</clipPath>
</defs>
</svg>
